<svg width="869" height="869" viewBox="0 0 869 869" fill="none" xmlns="http://www.w3.org/2000/svg">
<g clip-path="url(#clip0_21_480)">
<rect width="869" height="869" fill="white"/>
<g clip-path="url(#clip1_21_480)">
<path d="M481.377 498.851C481.377 494.513 477.538 486.672 475.535 486.672C474.7 486.672 471.862 485.671 469.526 484.336C467.189 483.168 461.68 481.667 457.34 480.999C451.331 479.998 449.161 478.83 447.993 475.994C446.991 472.991 444.487 471.823 435.807 470.322C429.965 469.154 423.455 468.32 421.619 468.32C419.616 468.32 417.279 466.985 416.445 465.15C415.443 463.482 412.272 461.646 409.434 460.979C406.596 460.479 402.256 457.976 399.752 455.307L395.412 450.802L394.578 456.641C393.743 462.147 393.409 462.481 386.566 462.981C380.39 463.482 379.221 462.981 378.387 460.145C377.719 457.642 376.05 456.641 373.045 456.641C364.866 456.641 361.194 454.806 361.194 450.802C361.194 447.632 362.362 446.798 368.371 445.964C372.21 445.463 387.066 443.461 401.255 441.626C415.443 439.624 442.985 435.954 462.181 433.284L497.235 428.446L502.743 434.619C511.256 444.296 544.974 490.509 544.139 491.343C543.639 491.677 531.787 493.846 517.766 496.014C503.744 498.183 489.723 500.519 486.885 501.019C482.212 501.854 481.377 501.52 481.377 498.851Z" fill="#FF1C00"/>
<path d="M254.364 434.953C254.364 428.446 254.531 428.279 260.206 428.279C266.883 428.279 268.719 430.782 267.05 437.455C266.215 440.959 265.047 441.626 260.206 441.626C254.531 441.626 254.364 441.459 254.364 434.953Z" fill="#FF1C00"/>
<path d="M259.372 419.103C259.372 413.597 259.705 413.264 265.214 413.264C270.722 413.264 271.056 413.597 271.056 419.103C271.056 424.608 270.722 424.942 265.214 424.942C259.705 424.942 259.372 424.608 259.372 419.103Z" fill="#FF1C00"/>
<path d="M257.035 404.088C256.534 402.419 253.863 401.585 249.523 401.585C244.182 401.585 242.847 400.918 242.012 397.915C240.176 390.574 241.177 387.404 251.693 369.219C257.536 359.042 274.562 329.012 289.418 302.319C304.441 275.792 329.479 231.08 345.336 203.052C361.194 175.023 378.721 143.659 384.563 133.315C390.238 122.971 395.246 114.796 395.58 115.13C395.913 115.464 394.411 120.135 392.241 125.641C390.071 130.979 380.891 153.502 372.044 175.524C363.03 197.546 354.016 220.069 351.846 225.574C349.843 231.08 336.323 264.947 321.8 300.65C307.445 336.52 293.09 372.556 289.751 380.731C283.075 398.082 281.906 399.917 277.566 399.917C275.73 399.917 273.059 401.418 271.557 403.254C268.052 407.258 258.537 407.758 257.035 404.088Z" fill="#FF1C00"/>
<path d="M150.205 550.236C149.871 549.735 162.223 527.046 177.747 500.019C193.271 472.991 214.47 435.62 224.819 417.102C235.001 398.416 244.015 383.234 244.516 383.234C245.183 383.234 246.018 386.237 246.686 389.907C247.687 396.581 249.69 397.916 254.197 395.079C256.2 393.745 256.033 392.577 253.363 387.071C251.693 383.568 250.358 379.063 250.692 376.894C251.693 370.221 254.03 373.057 255.7 383.234C256.701 388.74 258.704 394.412 260.206 395.914C261.542 397.248 262.71 399.417 262.71 400.418C262.71 401.586 263.879 401.085 265.047 399.584C266.216 397.916 271.056 395.413 275.897 393.745C281.739 391.909 283.909 390.575 282.407 389.574C280.905 388.74 281.238 388.239 283.575 388.072C285.412 388.072 285.912 387.572 284.911 387.071C281.906 385.903 282.24 383.234 285.245 383.234C286.58 383.234 287.748 383.901 287.748 384.569C287.748 385.236 281.405 401.92 273.56 421.606C263.879 445.63 259.873 457.809 261.041 458.977C262.71 460.645 290.753 457.476 340.329 449.968C351.345 448.3 364.198 446.465 368.705 445.964C376.551 445.13 376.717 445.13 371.209 446.965C366.035 448.467 365.701 448.8 368.705 450.135C370.541 450.802 374.548 451.47 377.552 451.47C381.057 451.636 382.894 452.471 382.894 453.972C382.894 457.476 386.232 458.977 388.402 456.808C389.904 455.307 389.737 454.306 387.567 453.138C385.898 452.137 385.064 450.469 385.731 448.967C386.232 447.466 385.731 445.63 384.396 444.796C382.727 443.795 383.561 443.295 387.067 443.295C390.906 443.295 391.574 443.795 389.57 444.963C387.734 446.131 389.07 446.631 394.244 446.631C399.753 446.631 402.256 447.632 405.261 450.802C407.431 453.138 411.604 455.474 414.442 455.974C417.279 456.641 420.451 458.477 421.452 460.145C422.287 461.98 424.624 463.315 426.627 463.315C428.463 463.315 434.973 464.149 440.815 465.317C449.495 466.818 451.999 467.986 453.001 470.989C454.169 473.825 456.339 474.993 462.348 475.994C466.688 476.662 472.197 478.163 474.533 479.331C476.87 480.666 479.708 481.667 480.71 481.667C481.878 481.667 483.046 483.335 483.547 485.17C484.382 488.507 485.383 488.674 492.06 487.84C496.233 487.172 501.575 486.338 503.912 485.671C507.751 484.67 507.918 485.003 506.749 488.507C505.414 491.844 503.745 492.678 496.233 493.345C488.388 494.012 487.219 494.68 487.553 497.516C487.887 500.686 486.218 501.186 464.184 504.023C442.818 506.859 413.774 511.03 370.374 517.536C362.195 518.704 342.666 521.707 326.975 524.043C229.326 538.557 166.063 548.234 157.883 549.902C154.044 550.57 150.539 550.903 150.205 550.236Z" fill="#FF3601"/>
<path d="M511.423 495.013C511.423 494.179 512.925 493.345 514.761 493.345C516.597 493.345 518.1 494.179 518.1 495.013C518.1 496.014 516.597 496.681 514.761 496.681C512.925 496.681 511.423 496.014 511.423 495.013Z" fill="#FF3601"/>
<path d="M518.1 488.34C516.264 487.172 516.931 486.672 520.937 486.672C523.775 486.672 526.78 487.506 527.28 488.34C528.616 490.509 521.438 490.509 518.1 488.34Z" fill="#FF3601"/>
<path d="M664.657 494.513C652.805 479.664 625.597 444.963 603.897 417.435C582.198 389.907 562.501 364.715 560.164 361.545C557.66 358.375 551.818 350.701 546.977 344.695C542.136 338.689 538.13 333.016 538.13 332.349C538.13 331.682 536.294 329.68 534.124 328.011C531.787 326.176 529.45 323.173 528.783 321.171C528.282 319.169 525.611 315.832 522.94 313.497C520.103 311.161 518.1 307.824 518.1 305.489C518.1 302.986 517.098 301.485 515.429 301.485C512.091 301.485 506.582 294.978 506.415 291.141C506.415 288.805 507.751 288.138 513.092 288.138C519.435 288.138 519.769 288.471 519.769 292.976C519.769 297.48 520.27 297.981 526.112 298.481C532.288 298.982 532.288 298.982 532.789 306.99C533.29 313.997 533.623 314.831 537.463 314.831C540.3 314.831 541.469 315.665 541.469 318.168C541.469 320.003 542.637 321.505 543.973 321.505C545.809 321.505 546.476 319.67 546.476 314.831C546.476 308.158 546.476 308.158 552.819 308.158H559.162L581.53 346.196C610.24 394.745 660.818 479.331 674.171 500.852C687.358 522.541 687.024 521.707 686.356 521.707C686.023 521.707 676.341 509.528 664.657 494.513Z" fill="#FF9000"/>
<path d="M346.839 432.784C346.338 431.449 346.171 426.778 346.505 422.274C347.006 414.432 347.172 414.099 352.514 413.598C361.027 412.764 363.364 416.935 359.525 426.611C357.188 432.45 355.685 434.286 352.18 434.619C349.509 434.953 347.506 434.286 346.839 432.784Z" fill="#FF9000"/>
<path d="M274.728 447.799C275.229 446.631 278.735 436.954 282.908 426.277C289.751 408.092 290.586 406.59 294.592 406.59C297.096 406.59 299.934 407.758 301.102 409.093C304.607 413.264 309.949 411.429 313.12 404.922C316.96 396.914 320.131 394.078 327.809 391.742C332.984 390.241 334.653 388.739 335.488 385.236C337.157 377.394 337.658 376.56 340.662 376.56C342.332 376.56 346.004 375.059 349.008 373.39C351.846 371.555 358.857 369.553 364.365 368.886L374.547 367.718V355.539C374.547 344.361 374.881 343.193 377.886 343.193C380.723 343.193 381.224 342.025 381.224 336.52C381.224 331.848 381.892 329.846 383.561 329.846C385.23 329.846 386.232 327.678 386.566 323.673C387.066 317.334 387.066 317.334 395.246 316.833C402.423 316.333 403.258 316.666 402.256 319.336C391.073 349.366 383.227 367.217 380.89 367.885C378.72 368.385 378.387 369.386 379.388 371.388C380.557 373.39 377.886 381.565 370.374 399.75L360.025 425.443L356.52 421.939C352.681 418.102 351.178 418.769 351.178 424.609C351.178 427.111 352.347 428.946 354.517 429.447C358.356 430.448 358.69 431.616 355.685 435.453C353.682 438.289 332.149 442.293 296.094 446.631C287.414 447.632 278.901 448.8 277.232 449.133C275.396 449.467 274.395 448.967 274.728 447.799Z" fill="#FF9D00"/>
<path d="M601.894 401.419C600.224 398.916 600.224 397.248 601.393 396.08C603.396 394.078 605.566 398.082 604.564 402.42C604.23 404.589 603.563 404.422 601.894 401.419Z" fill="#FF9D00"/>
<path d="M562.334 364.382C561.666 362.713 561.499 360.878 562.167 360.378C563.836 358.709 565.172 361.045 564.337 364.382C563.669 367.218 563.669 367.218 562.334 364.382Z" fill="#FF9D00"/>
<path d="M553.153 345.363C553.153 344.695 554.656 343.027 556.492 341.859C559.162 340.191 559.496 339.19 557.994 335.519C556.659 331.682 556.992 330.348 559.997 327.178C563.669 323.174 563.669 323.174 560.498 319.503C553.32 310.995 551.484 311.162 551.484 320.671C551.484 327.345 551.15 328.179 547.812 327.678C544.473 327.345 543.973 328.012 544.473 332.85C544.64 335.686 544.14 338.189 543.305 338.189C542.47 338.189 534.124 328.346 524.61 316.333C515.095 304.321 502.91 288.972 497.735 282.466C492.394 275.959 488.054 270.12 488.054 269.453C488.054 268.619 489.556 268.118 491.225 268.118C493.062 268.118 495.065 266.617 495.565 264.615C496.734 260.944 499.071 260.944 514.428 264.114C519.435 265.115 519.769 264.781 519.769 260.777C519.769 256.273 517.933 255.439 507.25 254.438C502.91 253.937 502.242 253.27 501.741 248.265C501.074 241.258 505.915 229.746 509.587 229.746C511.423 229.746 522.106 246.096 540.968 277.628C565.172 318.335 569.178 325.843 567.175 327.845C565.839 329.013 564.838 331.349 564.671 332.85C564.504 337.188 558.996 345.696 555.991 346.197C554.489 346.531 553.153 346.197 553.153 345.363ZM527.781 307.825C527.447 305.656 526.613 303.988 525.611 303.988C524.777 303.988 523.775 305.656 523.441 307.825C523.107 310.327 523.775 311.495 525.611 311.495C527.447 311.495 528.115 310.327 527.781 307.825Z" fill="#FF9D00"/>
<path d="M473.866 251.934C464.184 239.422 463.683 233.249 472.363 228.244C475.535 226.242 480.542 224.74 483.38 224.74H488.555L487.386 233.582C486.719 238.254 485.884 246.262 485.216 251.1C484.716 255.938 483.714 260.276 482.879 260.777C482.212 261.11 478.039 257.273 473.866 251.934Z" fill="#FF9D00"/>
<path d="M489.723 218.735V211.228L496.066 211.728C502.075 212.229 502.242 212.395 502.743 219.402L503.244 226.41H496.567H489.723V218.735Z" fill="#FF9D00"/>
<path d="M287.081 438.623C285.578 436.12 288.082 429.947 290.419 429.947C293.757 429.947 295.26 434.452 292.756 437.455C290.419 440.291 288.416 440.625 287.081 438.623Z" fill="#FFA600"/>
<path d="M344.501 423.441C344.501 421.439 345.336 419.938 346.171 419.938C347.172 419.938 347.84 420.939 347.84 422.273C347.84 423.608 347.172 425.276 346.171 425.777C345.336 426.277 344.501 425.276 344.501 423.441Z" fill="#FFA600"/>
<path d="M297.764 417.602C297.764 414.766 292.422 410.094 291.588 412.43C290.419 415.767 287.915 418.937 287.081 418.102C286.58 417.769 296.595 391.576 309.281 360.044C330.647 306.824 332.65 302.653 337.491 300.317C340.496 298.815 342.832 296.647 342.832 295.479C342.832 294.144 344.335 293.143 346.004 293.143C347.84 293.143 349.843 292.476 350.344 291.475C350.845 290.641 352.848 289.806 354.684 289.806C358.022 289.806 363.03 284.968 372.878 272.289C376.217 267.951 381.057 263.947 384.062 262.946C386.9 262.112 390.238 260.11 391.24 258.775C392.408 257.607 394.745 256.439 396.247 256.439C397.917 256.439 401.756 254.437 404.76 251.935C409.1 248.264 412.105 247.263 420.952 246.763C433.471 245.929 433.304 244.427 423.622 267.284C420.618 274.624 414.442 289.64 409.935 300.651C402.423 319.002 401.422 320.671 396.915 321.505C392.742 322.172 392.074 323.173 391.573 328.679C391.24 332.683 390.238 334.852 388.569 334.852C384.897 334.852 385.731 340.024 389.737 341.025C391.74 341.692 392.742 342.86 392.241 344.361C391.74 345.696 391.24 347.364 391.24 348.032C391.24 348.699 388.569 348.866 385.397 348.532L379.555 347.865V355.539C379.555 361.379 380.223 363.214 382.226 363.214C384.897 363.214 384.563 365.383 380.39 375.393L378.22 380.398L375.215 376.894C372.044 373.224 367.871 372.056 367.871 374.725C367.871 378.563 370.208 381.566 373.045 381.566C376.217 381.566 377.051 384.235 375.215 388.906C372.711 395.413 362.863 388.739 362.863 380.398C362.863 375.059 360.359 374.392 354.183 378.229C351.179 380.064 347.339 381.566 345.67 381.566C342.666 381.566 342.165 382.4 340.496 390.241C339.661 393.745 337.992 395.246 332.817 396.748C325.139 399.083 321.967 401.919 318.128 409.761C316.459 413.264 313.621 416.1 311.117 416.601C298.098 419.938 297.764 419.938 297.764 417.602Z" fill="#FFA600"/>
<path d="M515.596 304.154C514.594 301.985 514.928 300.651 516.097 300.15C517.265 299.816 518.1 297.647 518.1 295.479C518.1 293.143 519.101 291.475 520.437 291.475C524.61 291.475 525.11 294.478 521.605 297.981C519.936 299.65 518.1 302.486 517.599 304.321C516.931 307.157 516.931 307.157 515.596 304.154Z" fill="#FFA600"/>
<path d="M484.549 265.449C480.376 259.943 478.372 255.939 479.04 254.104C479.541 252.602 479.207 251.435 478.206 251.435C477.204 251.435 476.369 252.269 476.369 253.27C476.369 254.271 470.36 247.264 462.849 237.921C455.337 228.411 447.826 220.403 446.157 220.07C443.82 219.569 442.151 221.404 439.647 227.077C437.978 231.248 435.307 234.751 433.971 234.751C432.636 234.751 431.301 236.419 430.967 238.588C430.466 241.758 429.465 242.259 423.789 242.259H417.112L416.612 234.918C415.777 223.24 417.279 219.736 422.788 219.736C426.627 219.736 427.795 218.902 428.296 216.066C428.797 212.729 429.798 212.228 437.477 212.228C442.151 212.228 446.657 211.561 447.325 210.894C447.993 210.226 449.829 209.726 451.498 209.726C453.334 209.726 454.67 208.224 455.003 206.056C455.337 203.386 456.84 202.051 459.677 201.718C462.014 201.384 466.688 200.383 470.026 199.549C475.368 198.214 476.202 197.213 476.703 192.542C477.204 188.037 477.872 187.203 482.212 186.703C487.052 186.202 487.72 187.036 500.907 210.06C508.418 223.073 514.094 234.251 513.259 234.751C512.424 235.252 510.588 238.088 509.086 241.091C505.914 247.264 507.083 251.768 510.588 246.93C512.758 244.094 513.092 244.094 517.933 247.764C520.77 249.766 523.608 251.435 524.61 251.435C526.78 251.435 528.616 257.107 526.613 257.774C523.942 258.609 524.443 264.114 527.28 266.45C528.783 267.618 529.45 268.952 528.95 269.453C527.614 270.954 507.584 269.62 504.412 267.951C502.075 266.617 501.241 267.117 500.406 270.454C498.737 277.294 492.227 275.292 484.549 265.449ZM480.376 240.257C481.043 237.587 481.878 234.251 482.379 232.582C483.213 230.08 482.712 230.08 477.371 233.25C469.359 237.921 469.359 244.094 477.371 244.594C478.539 244.761 479.875 242.759 480.376 240.257Z" fill="#FFA600"/>
<path d="M459.677 180.529C459.677 173.856 460.345 171.019 462.181 170.352C463.683 169.685 464.685 167.182 464.685 163.679C464.685 155.671 469.526 156.171 474.366 164.68C476.369 168.35 477.371 171.353 476.369 171.353C475.535 171.353 474.7 173.856 474.7 176.859C474.7 187.536 473.198 189.705 466.187 189.705H459.677V180.529Z" fill="#FFA600"/>
<path d="M369.54 388.238C367.704 386.403 366.201 384.068 366.201 383.233C366.201 380.731 374.381 386.904 374.547 389.573C374.547 392.409 373.379 392.076 369.54 388.238Z" fill="#FFAF00"/>
<path d="M329.98 316.5C328.143 313.831 330.48 306.991 346.338 267.784C356.52 242.759 366.702 217.233 369.206 211.061C373.212 201.05 374.214 199.716 378.053 199.716C380.557 199.716 383.394 200.884 384.563 202.218C385.731 203.72 388.235 204.721 390.071 204.387C393.577 203.887 394.077 203.219 398.584 192.709C400.42 188.204 402.256 186.369 404.593 186.369C406.596 186.369 410.436 185.201 413.44 183.533C416.445 182.031 422.12 180.029 426.293 178.861C431.968 177.36 434.806 175.525 437.978 170.686C440.481 167.016 445.155 163.179 449.328 161.344C456.172 158.341 459.01 153.002 453.835 153.002C452.333 153.002 451.331 151.5 451.331 148.831C451.331 145.828 450.497 144.66 447.993 144.66C444.321 144.66 442.485 139.488 443.319 131.981C443.653 128.144 444.654 127.143 447.826 127.143C451.331 127.143 453.668 129.979 462.515 144.66C468.357 154.337 472.196 162.512 471.362 162.678C468.524 163.679 469.526 166.349 472.697 166.349C475.869 166.349 495.732 198.548 493.062 199.382C492.06 199.716 491.392 201.885 491.392 204.054C491.392 208.558 488.722 209.225 484.716 205.555C482.379 203.386 480.543 203.386 471.195 205.388C463.684 206.89 460.345 208.391 460.011 210.226C459.677 211.895 460.679 213.563 462.014 214.064C464.017 214.898 464.685 217.567 464.685 224.741C464.685 230.247 463.85 235.085 463.016 235.585C462.181 236.086 461.347 235.252 461.347 233.416C461.347 230.413 454.67 222.739 454.67 225.742C454.67 226.576 453.501 225.742 451.999 223.907C449.495 220.57 436.809 215.899 434.305 217.4C433.638 217.901 432.97 220.904 432.97 224.074C432.97 228.078 433.638 229.746 435.641 229.746C438.478 229.746 438.145 232.082 432.803 243.927C429.965 250.434 429.131 251.101 422.287 251.768C417.446 252.436 412.772 254.271 409.601 257.107C406.763 259.443 402.924 261.445 401.255 261.445C399.753 261.445 397.416 262.613 396.247 263.78C395.246 265.115 391.907 267.117 389.07 267.951C386.065 268.952 381.224 272.956 377.886 277.294C368.038 289.973 363.03 294.812 359.691 294.812C357.855 294.812 355.852 295.646 355.352 296.48C354.851 297.481 352.848 298.148 351.012 298.148C349.342 298.148 347.84 298.983 347.84 299.817C347.84 303.153 340.996 308.325 337.324 307.825C334.82 307.491 333.819 307.992 334.319 309.827C336.489 318.169 333.652 322.506 329.98 316.5ZM425.125 229.412L423.455 223.907L422.12 228.411C420.618 234.417 422.287 239.423 424.958 236.753C426.293 235.418 426.293 233.25 425.125 229.412ZM456.339 219.903C456.339 216.066 453.668 213.897 452.166 216.399C450.664 218.735 452.333 223.073 454.67 223.073C455.504 223.073 456.339 221.571 456.339 219.903ZM485.717 191.708C484.215 190.373 481.377 193.376 481.377 196.045C481.544 198.548 481.711 198.548 483.881 195.712C485.216 193.877 486.051 192.208 485.717 191.708ZM468.691 180.363C470.027 175.525 469.192 173.856 466.521 175.525C464.351 176.859 464.017 184.701 466.187 184.701C467.022 184.701 468.19 182.699 468.691 180.363Z" fill="#FFAF00"/>
<path d="M407.598 298.482C405.762 298.148 404.593 296.313 404.593 293.811C404.593 290.641 405.428 289.807 408.766 289.807C411.604 289.807 412.939 290.641 412.939 292.81C412.939 296.981 410.769 299.149 407.598 298.482Z" fill="#FFAF00"/>
<path d="M471.529 249.098C468.858 245.928 469.693 244.26 472.864 246.262C474.033 247.096 474.867 248.598 474.366 249.766C473.866 251.267 473.031 250.933 471.529 249.098Z" fill="#FFAF00"/>
<path d="M491.893 228.244C490.391 226.242 488.054 224.741 486.718 224.741C485.216 224.741 484.715 223.072 485.049 220.236C485.717 214.23 490.391 214.063 491.058 220.069C491.392 223.072 492.895 224.741 495.732 225.408C498.069 226.076 499.738 227.41 499.405 228.411C498.236 231.915 494.898 231.748 491.893 228.244Z" fill="#FFAF00"/>
<path d="M497.735 212.896C494.063 210.894 493.896 208.058 497.235 208.058C498.57 208.058 500.406 209.559 501.408 211.394C503.411 215.065 502.075 215.565 497.735 212.896Z" fill="#FFAF00"/>
<path d="M185.926 555.742C188.931 555.074 235.335 548.067 262.71 544.23C273.226 542.729 290.92 540.059 301.937 538.391C312.953 536.722 333.318 533.719 347.005 531.717C360.86 529.715 375.883 527.547 380.39 526.712C401.589 523.042 404.593 523.042 404.593 526.212C404.593 527.713 402.59 530.716 400.086 532.718C397.416 534.72 396.08 537.056 396.748 537.89C397.583 538.558 408.933 539.058 421.953 538.724C443.987 538.391 445.99 538.558 448.827 541.727C451.498 544.564 454.002 545.064 467.189 545.064C481.21 545.064 482.712 544.731 483.547 541.727C484.382 538.558 485.717 538.391 511.757 538.558C526.613 538.558 541.97 539.058 545.642 539.725C551.651 540.726 552.319 541.561 552.819 546.065L553.32 551.237L536.127 552.238C526.613 552.905 501.741 553.406 480.542 553.406C459.51 553.406 401.922 554.24 352.848 555.074C265.548 556.576 180.918 556.909 185.926 555.742Z" fill="#00C5EC"/>
<path d="M434.639 523.543C434.639 519.205 435.307 518.704 441.817 517.703C445.656 517.036 451.331 516.202 454.336 515.701C459.344 514.7 459.677 515.034 459.677 519.539C459.677 526.712 456.84 528.381 445.155 528.381C434.639 528.381 434.639 528.381 434.639 523.543Z" fill="#00C5EC"/>
<path d="M509.42 527.213C507.083 526.713 506.415 524.544 506.415 517.37C506.415 507.026 505.915 507.36 521.939 505.358L533.29 503.856L532.789 515.702L532.288 527.547L522.273 527.881C516.764 527.881 510.922 527.714 509.42 527.213Z" fill="#00C5EC"/>
<path d="M416.278 524.377C416.278 522.208 420.952 520.039 425.959 520.039C426.961 520.039 427.962 521.541 427.962 523.376C427.962 526.045 426.794 526.712 422.12 526.712C418.281 526.712 416.278 525.878 416.278 524.377Z" fill="#00C5EC"/>
<path d="M462.515 520.539C460.345 518.537 461.347 515.2 464.351 514.366C465.853 513.865 470.026 513.031 473.532 512.364C479.541 511.363 479.708 511.363 479.708 516.535C479.708 521.54 479.541 521.707 471.696 521.707C467.189 521.707 463.016 521.206 462.515 520.539Z" fill="#00C5EC"/>
<path d="M554.489 487.005C547.812 479.831 516.431 436.955 516.431 435.119C516.431 434.118 519.101 433.284 522.273 433.284C525.444 433.284 528.115 433.952 528.115 434.786C528.115 435.453 531.12 439.624 534.792 443.795C538.464 447.966 541.469 452.804 541.469 454.639C541.469 456.975 542.804 458.309 545.308 458.643C548.146 458.977 549.147 460.311 549.481 465.15C549.982 470.488 550.65 471.323 556.158 472.657C561.499 473.992 562.334 474.826 562.835 479.497C563.169 482.5 562.334 486.505 560.999 488.34C558.829 491.51 558.662 491.51 554.489 487.005Z" fill="#00C5EC"/>
<path d="M632.775 487.172C632.107 486.671 631.606 484.669 631.606 483.001C631.606 481.332 630.939 479.998 629.937 479.998C629.102 479.998 628.268 477.328 628.268 474.159C628.268 470.989 628.935 468.319 629.77 468.319C631.105 468.319 642.79 481.499 645.628 486.338C646.462 487.839 645.127 488.34 640.286 488.34C636.781 488.34 633.275 487.839 632.775 487.172Z" fill="#00C5EC"/>
<path d="M503.411 419.772C499.571 414.767 497.235 410.095 497.902 409.428C498.737 408.594 502.242 408.26 505.748 408.594C512.091 409.094 512.257 409.261 512.758 416.101C513.092 420.105 512.591 424.443 511.757 425.945C510.421 428.28 509.086 427.112 503.411 419.772Z" fill="#00C5EC"/>
<path d="M563.836 414.266C563.335 412.931 563.168 409.427 563.502 406.258C564.003 401.086 564.337 400.752 571.181 400.251L578.191 399.751V408.093V416.601H571.514C567.175 416.601 564.337 415.767 563.836 414.266Z" fill="#00C5EC"/>
<path d="M483.547 394.411C475.702 384.068 473.031 379.063 473.031 375.225C473.031 370.054 473.198 369.887 480.209 369.887C489.556 369.887 491.392 372.056 491.392 382.566C491.392 388.739 492.06 391.575 493.896 392.243C495.565 392.91 496.4 395.579 496.4 400.751C496.4 404.922 495.899 408.259 495.232 408.259C494.397 408.259 489.222 401.919 483.547 394.411Z" fill="#00C5EC"/>
<path d="M498.069 398.249V391.575H504.746H511.423V398.249V404.922H504.746H498.069V398.249Z" fill="#00C5EC"/>
<path d="M547.478 390.742C546.977 386.571 545.976 379.897 545.475 375.727C544.807 370.555 543.639 368.219 541.97 368.219C540.467 368.219 538.297 366.884 537.129 365.383C534.291 361.546 534.124 349.867 536.962 349.867C539.132 350.034 550.816 364.882 550.149 367.051C549.982 367.719 550.483 368.219 551.317 368.219C552.319 368.219 556.325 372.557 560.331 377.895L567.675 387.405L564.17 392.744C561.332 397.248 559.663 398.249 554.656 398.249C548.646 398.249 548.479 398.083 547.478 390.742Z" fill="#00C5EC"/>
<path d="M463.85 368.553C451.832 353.537 422.454 313.664 420.785 310.327C419.449 307.491 420.618 303.153 425.959 289.473C429.631 279.963 435.974 263.78 439.981 253.603C443.82 243.26 447.659 234.751 448.16 234.751C449.161 234.751 464.685 254.271 464.685 255.605C464.685 256.106 462.014 256.44 458.843 256.44C455.337 256.44 452.5 255.439 451.331 253.603C449.829 251.268 449.662 251.935 450.497 256.94C450.997 260.444 450.997 270.454 450.33 279.129L449.161 294.812H443.82C440.481 294.812 437.978 295.813 437.31 297.314C436.809 298.816 434.305 299.817 431.134 299.817C426.794 299.817 426.293 300.15 427.962 302.152C428.964 303.487 431.468 304.822 433.471 305.155C436.308 305.489 437.31 306.991 437.644 311.996C437.978 316.5 438.979 318.168 440.982 318.168C445.155 318.168 451.331 325.509 451.331 330.514C451.331 335.686 454.67 336.353 455.838 331.348C456.673 328.512 457.841 328.012 463.683 328.512C470.527 329.013 470.527 329.013 471.028 336.187C471.362 341.359 470.861 343.527 469.025 344.195C465.687 345.529 465.686 351.369 468.858 355.539C471.362 358.876 472.363 374.892 470.193 374.892C469.359 374.892 466.688 372.056 463.85 368.553Z" fill="#00C5EC"/>
<path d="M510.922 332.016C510.254 331.516 509.754 328.012 509.754 324.509C509.754 316 512.925 316.334 519.602 325.677L524.944 333.184H518.434C514.928 333.184 511.423 332.684 510.922 332.016Z" fill="#00C5EC"/>
<path d="M492.561 308.659C491.893 308.159 491.392 304.655 491.392 301.151C491.392 292.643 494.564 292.977 501.241 302.319L506.582 309.827H500.072C496.567 309.827 493.062 309.326 492.561 308.659Z" fill="#00C5EC"/>
<path d="M461.346 290.807C461.346 286.636 462.181 282.799 463.183 282.132C464.351 281.464 464.685 277.293 463.85 269.619C462.849 259.943 463.016 258.107 465.186 258.107C466.521 258.107 469.025 260.109 470.694 262.779C472.196 265.281 478.039 272.622 483.38 279.295C488.722 285.802 493.061 291.641 493.061 292.142C493.061 292.642 489.723 293.143 485.717 293.143C480.709 293.143 478.039 293.977 477.371 295.645C476.703 297.314 474.032 298.148 468.858 298.148H461.346V290.807Z" fill="#00C5EC"/>
<path d="M346.171 269.119C346.171 266.616 350.177 258.107 351.345 258.107C353.349 258.107 353.182 260.443 350.845 265.615C349.342 268.952 346.171 271.454 346.171 269.119Z" fill="#FFB900"/>
<path d="M362.028 228.411C363.364 225.241 364.532 222.405 364.532 222.238C364.532 221.905 365.868 221.905 367.537 222.071C369.874 222.238 370.374 220.903 370.207 215.732C370.041 210.727 375.883 194.21 393.243 150.666C406.096 118.467 417.78 88.4366 419.282 83.7652C421.619 76.0908 421.953 75.7572 424.123 78.7602C426.794 82.4306 454.67 131.647 454.67 132.648C454.67 132.982 453.501 132.982 452.166 132.481C449.161 131.313 447.659 133.482 448.994 136.986C450.33 140.489 453 140.489 453 136.986C453 133.482 456.339 134.817 459.343 139.321C461.513 142.658 461.513 142.992 459.01 142.992C457.507 142.992 456.339 144.159 456.339 145.494C456.339 146.996 457.841 147.997 460.512 147.997C462.849 147.997 465.353 149.331 466.354 151.333C467.856 154.003 467.69 154.67 465.686 154.67C464.184 154.67 462.515 156.672 462.014 159.008C461.18 162.011 458.676 164.346 454.169 166.348C450.163 168.184 445.489 172.188 442.985 175.691C439.814 180.529 436.976 182.365 431.301 183.866C427.128 185.034 421.452 187.036 418.448 188.538C415.443 190.206 411.604 191.374 409.601 191.374C407.264 191.374 405.428 193.209 403.592 197.713C402.089 201.05 400.253 204.887 399.753 206.222C399.085 207.557 395.579 209.559 391.907 210.56C385.898 212.395 385.063 212.228 380.724 208.224L375.883 203.886L376.884 214.731C377.552 220.737 377.385 226.409 376.717 227.243C376.05 228.244 371.877 230.079 367.537 231.581L359.691 234.25L362.028 228.411Z" fill="#FFB900"/>
<path d="M470.026 185.201C470.861 181.03 474.7 180.53 474.7 184.534C474.7 186.536 473.699 188.037 472.029 188.037C470.527 188.037 469.693 186.869 470.026 185.201Z" fill="#FFB900"/>
<path d="M293.591 553.406C292.422 551.404 295.093 551.237 326.975 550.737C352.18 550.403 362.863 551.237 362.863 553.573C362.863 555.742 294.926 555.575 293.591 553.406Z" fill="#00D9FC"/>
<path d="M454.67 551.737C454.67 550.903 452.834 550.069 450.831 550.069C448.661 550.069 445.489 548.567 443.653 546.565C440.815 543.396 439.48 543.229 427.462 544.23C420.284 544.897 407.097 544.897 398.25 544.23C383.895 543.062 382.56 542.728 386.566 541.06C391.073 539.058 391.073 539.058 387.901 536.222C383.561 532.551 383.728 530.049 388.068 530.049C389.904 530.049 393.743 528.547 396.414 526.712C399.252 524.543 405.762 522.708 413.273 521.707C419.95 520.873 428.63 519.705 432.636 519.038C438.478 518.037 439.647 518.37 439.647 520.706C439.647 525.211 451.665 523.709 453.835 518.871C455.337 515.2 465.687 512.531 467.356 515.367C468.858 517.703 474.7 516.869 473.699 514.533C473.198 512.865 477.037 511.864 488.388 510.195C496.901 509.028 506.582 507.693 509.754 507.192C515.095 506.191 515.429 506.358 513.259 509.028C511.089 511.697 511.423 511.864 519.101 511.363C524.944 511.03 527.281 510.195 527.281 508.36C527.281 505.024 531.454 503.522 544.974 502.354C551.317 501.687 557.827 500.352 559.329 499.184C561.833 497.349 561.666 496.682 558.161 491.677C554.989 487.172 554.656 485.671 556.325 483.168C557.994 480.332 557.66 479.665 553.821 478.33C551.484 477.329 548.98 476.995 548.146 477.496C547.478 477.996 545.475 476.328 543.973 473.992C541.803 470.655 541.636 469.321 543.138 468.32C546.31 466.485 543.472 463.148 539.299 463.648C536.294 463.982 535.627 463.315 535.627 459.978C535.627 457.476 533.123 452.637 529.451 448.3C525.945 444.296 523.107 440.292 523.107 439.291C523.107 438.29 522.44 438.456 521.605 439.791C520.604 441.459 518.434 439.624 513.259 432.784C507.751 425.61 506.582 422.607 507.25 419.437C508.418 414.766 505.581 411.763 502.743 414.599C500.406 416.935 491.392 406.09 491.392 401.252C491.392 399.417 490.057 397.582 488.388 397.081C486.051 396.581 485.55 394.579 485.55 387.071C485.55 380.231 484.882 377.395 482.713 376.06C478.873 373.558 476.87 375.893 479.374 380.064C480.543 381.899 480.876 384.402 480.042 385.737C479.04 387.739 477.371 386.237 472.53 379.897C469.192 375.393 466.354 370.054 466.354 368.219C466.354 366.217 465.52 363.214 464.518 361.379C463.183 358.709 462.348 358.376 460.345 359.877C458.509 361.545 457.841 361.379 457.007 359.043C456.172 357.208 456.84 355.539 458.509 354.538C460.345 353.537 461.347 350.868 461.347 347.031C461.347 343.36 462.348 340.191 464.184 339.023C465.687 337.855 466.354 336.187 465.687 335.186C464.017 332.349 461.68 332.683 461.013 335.853C460.345 339.857 447.826 343.36 444.154 340.691C440.648 338.189 440.648 336.52 444.154 334.018C446.824 332.016 446.824 331.515 442.484 327.344C439.313 324.008 437.978 323.507 437.978 325.342C437.978 329.68 433.471 329.847 431.301 325.509C429.465 322.172 429.465 320.838 431.134 317.501C433.638 312.996 432.302 309.493 428.797 310.994C427.295 311.495 424.958 310.16 423.122 307.991C419.115 302.986 421.786 294.811 427.462 294.811C432.469 294.811 433.805 291.808 430.466 288.305C428.129 285.636 428.129 284.468 429.965 279.796L432.135 274.458L437.811 282.132C440.982 286.303 443.987 289.473 444.321 288.972C444.821 288.472 444.154 285.135 442.985 281.298C440.982 275.125 440.982 274.291 443.486 272.789C446.491 271.288 447.325 263.947 444.988 262.445C443.319 261.444 443.653 243.593 445.489 239.255C446.658 236.419 446.991 236.586 448.661 240.09C449.662 242.092 452.333 244.761 454.336 245.762C456.506 246.763 458.175 248.265 458.008 249.099C457.841 249.766 458.843 250.934 460.178 251.434C463.85 252.602 470.026 261.111 468.858 263.113C468.357 263.947 469.025 264.781 470.527 264.781C472.363 264.781 473.031 265.615 472.363 267.284C471.863 268.952 472.53 270.287 474.533 271.121C479.374 272.956 486.552 282.466 485.383 285.469C484.716 287.304 485.383 288.138 487.553 288.138C491.559 288.138 498.403 297.147 497.068 300.484C496.4 302.319 497.402 303.654 500.239 304.655C505.915 306.824 516.764 320.337 515.429 323.841C514.761 325.676 515.763 327.011 518.434 328.012C522.941 329.68 540.133 350.534 540.634 354.705C541.135 359.71 543.472 363.047 545.642 362.213C546.81 361.712 550.483 364.715 553.988 369.387C559.163 376.227 559.663 377.562 557.159 378.062C555.49 378.396 553.153 377.228 551.818 375.56C549.481 372.557 549.481 372.557 550.65 375.726C551.484 377.562 552.319 382.233 552.819 386.237C553.153 390.074 553.988 393.244 554.656 393.244C555.323 393.244 557.159 391.075 558.662 388.239C560.331 385.57 562.334 383.234 563.002 383.234C563.836 383.234 567.342 387.238 571.014 392.076C574.686 396.748 590.544 416.768 606.234 436.454C621.925 456.141 634.444 472.824 633.943 473.659C633.442 474.326 634.277 474.993 635.612 474.993C637.282 474.993 638.116 476.328 637.782 478.664C637.616 481.333 638.45 482.668 640.787 483.001C642.623 483.335 649.3 490.175 655.81 498.517C662.32 506.859 673.837 521.54 681.349 531.05C689.027 540.726 695.036 549.068 694.536 549.568C694.035 549.902 660.484 550.736 619.922 551.237C548.646 552.238 546.31 552.238 546.81 549.068C547.144 546.732 545.976 545.731 540.634 544.73C530.953 543.062 490.057 543.062 488.889 544.897C487.553 547.233 492.06 547.9 511.423 548.234C520.938 548.401 529.45 549.068 530.118 549.402C534.959 552.405 528.783 553.406 505.581 553.406C489.389 553.406 479.708 552.738 479.708 551.737C479.708 549.235 466.855 549.735 465.853 552.238C465.186 553.906 464.852 553.906 464.852 552.238C464.685 549.735 459.677 549.235 459.677 551.737C459.677 552.738 458.509 553.406 457.174 553.406C455.838 553.406 454.67 552.738 454.67 551.737ZM527.281 521.874C528.449 519.872 523.775 519.038 516.431 519.872C511.59 520.372 511.089 520.706 513.927 521.874C518.601 523.709 526.112 523.709 527.281 521.874ZM573.184 408.259C573.184 406.424 572.516 404.923 571.682 404.923C569.345 404.923 567.842 407.926 569.011 409.928C570.68 412.764 573.184 411.763 573.184 408.259ZM475.034 287.804C480.709 281.465 480.709 280.797 476.036 277.461C470.694 273.623 469.359 274.124 470.527 279.463C471.195 282.799 470.694 284.968 468.858 286.47C465.853 288.972 465.52 293.143 468.357 293.143C469.359 293.143 472.363 290.807 475.034 287.804Z" fill="#00D9FC"/>
<path d="M309.448 543.395L303.606 542.394L309.949 541.06C316.292 539.725 319.797 540.726 316.793 543.062C315.958 543.896 312.62 543.896 309.448 543.395Z" fill="#00D9FC"/>
<path d="M272.892 542.728C274.728 541.06 297.764 540.059 297.764 541.56C297.764 542.728 292.923 543.395 284.911 543.395C277.9 543.395 272.558 543.062 272.892 542.728Z" fill="#00D9FC"/>
<path d="M339.995 537.89C338.659 535.721 340.495 534.72 348.508 533.218C354.183 532.217 357.187 532.551 360.693 534.219C363.197 535.554 368.705 536.722 372.711 536.722C376.717 536.722 379.555 537.222 379.054 537.723C377.552 539.391 340.996 539.391 339.995 537.89Z" fill="#00D9FC"/>
<path d="M321.633 536.556C323.47 535.388 325.473 535.388 327.476 536.556C329.813 538.057 329.312 538.224 324.471 538.224C319.63 538.224 319.13 538.057 321.633 536.556Z" fill="#00D9FC"/>
<path d="M375.883 528.047C378.72 526.712 380.223 526.712 381.558 528.047C383.06 529.548 382.226 530.049 377.886 529.882C372.377 529.882 372.21 529.715 375.883 528.047Z" fill="#00D9FC"/>
<path d="M434.973 268.618C435.808 264.447 439.647 263.947 439.647 267.951C439.647 269.953 438.645 271.454 436.976 271.454C435.474 271.454 434.639 270.286 434.973 268.618Z" fill="#00D9FC"/>
<g filter="url(#filter0_d_21_480)">
<path d="M682.469 724.573C678.243 722.787 674.181 718.076 672.068 712.554C669.956 707.356 672.718 699.234 677.594 695.174C680.518 692.9 680.518 692.9 677.919 696.799C674.343 701.996 674.506 711.254 678.081 715.64C681.981 720.188 687.182 721.65 694.007 720.35C700.67 719.214 705.545 711.254 703.92 704.433C703.108 701.346 685.719 678.769 681.656 675.683C681.169 675.196 678.731 672.272 676.293 669.023C669.63 660.252 670.118 651.481 677.594 644.984C685.882 637.674 694.495 637.837 702.133 645.471C709.933 653.268 709.771 660.577 701.971 668.861L695.719 673.11L700.345 668.536C705.058 661.227 705.383 657.816 701.971 651.319C699.37 646.283 690.594 642.385 685.557 644.172C679.056 646.446 675.156 651.643 675.156 657.978C675.156 662.689 676.619 665.612 682.144 671.785C703.271 695.661 707.658 701.671 707.658 707.194C707.658 713.853 702.457 720.838 695.307 723.761C689.294 726.36 687.181 726.36 682.469 724.573Z" fill="#280666"/>
<path d="M681.912 725.89L681.962 725.91C684.373 726.823 686.306 727.357 688.478 727.239C690.612 727.123 692.836 726.385 695.862 725.078C703.435 721.976 709.087 714.538 709.087 707.194C709.087 703.97 707.767 700.779 703.983 695.537C700.196 690.291 693.767 682.766 683.214 670.839L683.209 670.833C680.461 667.763 678.821 665.605 677.853 663.69C676.916 661.833 676.585 660.152 676.585 657.979C676.585 652.315 680.039 647.616 686.029 645.52C688.057 644.801 691.109 645.183 694.104 646.496C697.08 647.801 699.604 649.852 700.701 651.974L700.705 651.983C702.363 655.14 702.987 657.319 702.782 659.489C702.575 661.68 701.505 664.083 699.228 667.632L694.714 672.095L696.522 674.292L702.774 670.042L702.903 669.954L703.011 669.84C707.03 665.573 709.285 661.345 709.331 656.999C709.377 652.632 707.191 648.507 703.143 644.462C699.138 640.459 694.743 638.287 690.135 638.196C685.535 638.106 680.978 640.096 676.652 643.91C672.677 647.366 670.462 651.524 670.214 656.073C669.968 660.601 671.679 665.311 675.153 669.885C677.586 673.127 680.077 676.126 680.646 676.693L680.715 676.762L680.792 676.821C681.661 677.481 683.408 679.343 685.647 681.97C687.842 684.547 690.408 687.736 692.876 690.931C695.344 694.127 697.706 697.315 699.497 699.888C700.393 701.177 701.137 702.298 701.677 703.183C701.948 703.626 702.159 703.995 702.311 704.289C702.386 704.436 702.442 704.555 702.482 704.648C702.501 704.694 702.515 704.73 702.525 704.757C702.53 704.772 702.534 704.782 702.536 704.789C703.236 707.765 702.535 711.063 700.856 713.772C699.173 716.491 696.607 718.458 693.766 718.943L693.74 718.948C690.485 719.567 687.717 719.51 685.348 718.817C683.001 718.132 680.96 716.799 679.178 714.725C677.672 712.868 676.786 709.823 676.747 706.508C676.709 703.2 677.52 699.9 679.096 697.608L679.108 697.591L679.124 697.567C679.76 696.613 680.257 695.868 680.589 695.337C680.753 695.072 680.9 694.825 681.007 694.613C681.059 694.509 681.121 694.377 681.169 694.231C681.199 694.14 681.311 693.799 681.229 693.392C681.179 693.141 681.044 692.814 680.735 692.552C680.431 692.295 680.098 692.22 679.869 692.206C679.484 692.182 679.182 692.315 679.095 692.352C678.856 692.457 678.612 692.62 678.426 692.75C678.024 693.03 677.453 693.474 676.756 694.017L676.716 694.047L676.678 694.077C674.001 696.308 671.956 699.597 670.851 702.997C669.753 706.373 669.52 710.066 670.738 713.078C672.948 718.844 677.233 723.911 681.912 725.89ZM701.971 651.319C699.37 646.284 690.594 642.386 685.557 644.172L700.681 668.01C705.072 661.06 705.3 657.658 701.971 651.319Z" stroke="#280666" stroke-width="0.410959"/>
</g>
<path d="M163.758 652.639H163.238C161.937 656.279 160.376 660.612 158.555 665.638C156.821 670.665 155 675.865 153.093 681.238C151.272 686.524 149.538 691.464 147.891 696.057L147.24 698.007C146.72 699.566 146.07 701.516 145.289 703.856C144.509 706.196 143.685 708.666 142.818 711.266C141.951 713.779 141.127 716.162 140.347 718.415C139.567 720.582 138.96 722.358 138.526 723.745C137.919 724.005 137.269 724.178 136.575 724.265C135.968 724.438 135.188 724.525 134.234 724.525C132.847 724.525 131.59 724.178 130.463 723.485C129.422 722.705 128.902 721.492 128.902 719.845C128.902 719.065 129.032 718.285 129.292 717.505C129.552 716.639 129.856 715.729 130.202 714.776C131.243 711.829 132.5 708.233 133.974 703.986C135.535 699.74 137.226 695.104 139.047 690.077C140.867 685.05 142.775 679.895 144.769 674.608C146.763 669.321 148.714 664.165 150.622 659.139C152.529 654.112 154.307 649.519 155.954 645.36C156.648 645.013 157.688 644.667 159.076 644.32C160.463 643.973 161.894 643.8 163.368 643.8C165.102 643.8 166.749 644.06 168.31 644.58C169.957 645.1 170.998 645.967 171.431 647.18C173.512 652.206 175.723 657.926 178.064 664.339C180.492 670.665 182.92 677.295 185.348 684.227C187.776 691.074 190.073 697.747 192.241 704.246C194.495 710.746 196.49 716.639 198.224 721.925C197.616 722.705 196.793 723.312 195.752 723.745C194.799 724.265 193.715 724.525 192.501 724.525C190.854 724.525 189.596 724.178 188.729 723.485C187.862 722.705 187.125 721.448 186.518 719.715L179.365 698.527L178.324 694.887C176.59 689.6 174.77 684.27 172.862 678.898C171.041 673.525 169.307 668.541 167.66 663.949C166.099 659.356 164.798 655.586 163.758 652.639ZM142.168 702.426L145.549 693.717H181.836L183.917 702.426H142.168Z" fill="black"/>
<path d="M439.647 645.776H438.404V647.019V683.723V720.427V721.67H439.647H463.016C472.674 721.67 478.589 721.588 482.09 721.225C483.815 721.046 485.115 720.786 486.009 720.343C486.476 720.111 486.901 719.797 487.203 719.353C487.514 718.895 487.628 718.398 487.628 717.924C487.628 717.472 487.52 717.007 487.244 716.573C486.975 716.151 486.595 715.839 486.174 715.601C485.369 715.147 484.219 714.863 482.744 714.651C479.754 714.22 474.791 714.012 466.884 713.846C466.885 713.846 466.883 713.846 466.884 713.846L448.402 713.376V699.572V685.829L461.819 686.133H461.832C465.168 686.175 467.764 686.196 469.775 686.157C471.769 686.118 473.263 686.018 474.362 685.796C475.449 685.576 476.389 685.192 476.982 684.381C477.556 683.596 477.613 682.657 477.613 681.888C477.613 681.15 477.553 680.231 476.974 679.457C476.381 678.666 475.449 678.283 474.362 678.063C472.23 677.632 468.426 677.645 461.817 677.809L448.402 678.114V666.205V654.124L465.163 654.434H465.173C473.371 654.518 477.98 654.524 480.516 654.106C481.774 653.898 482.831 653.545 483.513 652.77C484.221 651.965 484.29 650.975 484.29 650.189C484.29 649.379 484.204 648.343 483.357 647.53C482.596 646.8 481.423 646.46 479.948 646.248C476.935 645.815 471.391 645.776 461.346 645.776H439.647Z" fill="black"/>
<path d="M466.884 713.846C474.791 714.012 479.754 714.22 482.744 714.651C484.219 714.863 485.369 715.147 486.174 715.601C486.595 715.839 486.975 716.151 487.244 716.573C487.52 717.007 487.628 717.472 487.628 717.924C487.628 718.398 487.514 718.895 487.203 719.353C486.901 719.797 486.476 720.111 486.009 720.343C485.115 720.786 483.815 721.046 482.09 721.225C478.589 721.588 472.674 721.67 463.016 721.67H439.647H438.404V720.427V683.723V647.019V645.776H439.647H461.346C471.391 645.776 476.935 645.815 479.948 646.248C481.423 646.46 482.596 646.8 483.357 647.53C484.204 648.343 484.29 649.379 484.29 650.189C484.29 650.975 484.221 651.965 483.513 652.77C482.831 653.545 481.774 653.898 480.516 654.106C477.98 654.524 473.371 654.518 465.173 654.434H465.163L448.402 654.124V666.205V678.114L461.817 677.809C468.426 677.645 472.23 677.632 474.362 678.063C475.449 678.283 476.381 678.666 476.974 679.457C477.553 680.231 477.613 681.15 477.613 681.888C477.613 682.657 477.556 683.596 476.982 684.381C476.389 685.192 475.449 685.576 474.362 685.796C473.263 686.018 471.769 686.118 469.775 686.157C467.764 686.196 465.168 686.175 461.832 686.133H461.819L448.402 685.829V699.572V713.376L466.884 713.846ZM466.884 713.846C466.883 713.846 466.885 713.846 466.884 713.846Z" stroke="black" stroke-width="0.357503"/>
<path d="M381.392 720.752L381.416 720.761C384.869 722 391.762 722.794 398.496 723.085C405.233 723.377 412.157 723.181 415.689 722.298L415.729 722.288C416.603 722.038 417.524 721.738 418.265 721.082C419.045 720.39 419.483 719.443 419.752 718.21C420.019 716.995 420.151 715.37 420.222 713.18C420.293 710.974 420.303 708.118 420.303 704.409C420.303 700.619 420.293 697.719 420.219 695.513C420.146 693.328 420.009 691.726 419.725 690.576C419.434 689.404 418.932 688.467 417.956 687.946C417.103 687.491 416.079 687.484 415.221 687.484C414.356 687.484 413.362 687.495 412.534 687.895C411.563 688.363 411.038 689.225 410.744 690.324C410.463 691.376 410.342 692.82 410.293 694.748C410.242 696.698 410.264 699.254 410.305 702.582V715.089L403.624 715.515C393.512 716.167 384.174 713.548 377.967 708.3C371.582 702.875 367.818 694.483 367.029 685.943C366.239 677.398 368.441 668.897 373.732 663.214C377.06 659.645 380.066 657.453 383.99 656.119C387.96 654.77 392.964 654.267 400.357 654.267C403.48 654.309 405.918 654.329 407.811 654.29C409.689 654.251 411.11 654.151 412.163 653.926C413.211 653.703 414.121 653.309 414.693 652.494C415.237 651.716 415.296 650.792 415.296 650.021C415.296 649.235 415.252 648.287 414.741 647.498C414.181 646.634 413.263 646.232 412.201 646.027C411.148 645.824 409.722 645.77 407.836 645.799C405.933 645.829 403.471 645.944 400.305 646.111C390.489 646.534 382.315 648.568 375.634 652.339C368.937 656.117 363.81 661.599 360.037 668.797C357.213 674.178 356.34 681.831 357.063 689.162C357.786 696.488 360.13 703.777 364.029 708.382C366.895 711.752 369.227 714.095 371.873 715.974C374.521 717.855 377.427 719.234 381.392 720.752Z" fill="black" stroke="black" stroke-width="0.357503"/>
<path d="M222.093 645.776H220.849V647.019V683.723C220.849 701.454 220.889 710.708 221.335 715.515C221.447 716.726 221.588 717.697 221.771 718.471C221.953 719.235 222.194 719.884 222.55 720.397C222.934 720.949 223.421 721.3 223.989 721.487C224.501 721.656 225.024 721.67 225.431 721.67C226.799 721.67 228.025 721.323 228.907 720.377C229.756 719.465 230.086 718.206 230.177 716.839L230.18 716.756C230.18 715.995 230.222 714.596 230.277 712.779C230.299 712.063 230.323 711.283 230.346 710.452C230.43 707.534 230.513 704.023 230.514 700.59L230.813 689.505L241.253 689.803H241.27C246.838 689.888 249.616 690.065 251.594 690.774C253.475 691.447 254.706 692.63 257.056 695.231C259.739 698.229 263.335 705.054 264.967 710.6L264.97 710.609C266.285 714.965 267.213 717.722 268.325 719.353C268.918 720.224 269.606 720.846 270.481 721.222C271.324 721.584 272.233 721.67 273.171 721.67C274.429 721.67 275.635 721.382 276.548 720.899C277.002 720.659 277.443 720.338 277.767 719.923C278.084 719.515 278.328 718.954 278.248 718.307C278.139 716.285 277.234 713.407 275.976 710.323C274.686 707.162 272.963 703.635 271.13 700.308C269.297 696.982 267.339 693.826 265.572 691.414C264.69 690.21 263.838 689.167 263.057 688.375C262.328 687.635 261.511 686.954 260.685 686.707C259.553 686.342 258.986 686.013 258.74 685.753C258.641 685.651 258.622 685.586 258.615 685.547C258.606 685.499 258.598 685.38 258.677 685.147C258.852 684.639 259.345 683.872 260.369 682.747C261.37 681.647 262.78 680.306 264.649 678.646L264.66 678.635C267.49 676.056 269.315 674.174 270.389 672.146C271.492 670.061 271.743 667.937 271.743 665.037C271.743 663.133 271.57 661.104 271.266 659.323C270.974 657.608 270.534 655.971 269.918 654.924C268.242 651.709 264.345 649.468 259.041 648.011C253.655 646.531 246.522 645.776 237.95 645.776H222.093ZM250.448 680.53L250.434 680.534C246.814 681.66 242.007 682.317 237.934 682.439C235.899 682.501 234.095 682.427 232.746 682.228C232.068 682.128 231.548 682.002 231.186 681.866C231.035 681.81 230.936 681.761 230.874 681.726C230.868 681.697 230.861 681.663 230.854 681.624C230.809 681.386 230.759 681.053 230.704 680.629C230.595 679.784 230.477 678.626 230.364 677.24C230.136 674.47 229.928 670.824 229.845 667.012L229.54 654.038L238.18 653.599C244.615 653.269 249.799 653.73 253.615 654.882C257.44 656.037 259.716 657.826 260.681 660.03L260.686 660.042C262.819 664.78 262.804 669.096 261.081 672.578C259.352 676.072 255.799 678.933 250.448 680.53Z" fill="black" stroke="black" stroke-width="0.357503"/>
<path d="M317.899 721.326L317.906 721.324C317.938 721.32 317.97 721.316 318.004 721.311C318.834 721.199 319.97 721.047 320.807 720.065C321.598 719.14 321.959 717.673 322.188 715.555C322.654 711.234 322.654 702.851 322.654 686.451V686.226V654.054L334.472 653.6C334.472 653.6 334.474 653.6 334.472 653.6C339.383 653.434 342.709 653.182 344.819 652.716C345.865 652.485 346.756 652.172 347.405 651.687C348.13 651.145 348.527 650.402 348.527 649.522C348.527 649.004 348.378 648.476 348.001 648.009C347.647 647.573 347.161 647.279 346.641 647.066C345.628 646.651 344.107 646.397 341.983 646.219C337.684 645.859 330.322 645.776 318.072 645.776C305.823 645.776 298.461 645.859 294.162 646.219C292.037 646.397 290.517 646.651 289.504 647.066C288.983 647.279 288.498 647.573 288.144 648.009C287.766 648.476 287.618 649.004 287.618 649.522C287.618 650.373 287.979 651.113 288.679 651.667C289.306 652.163 290.167 652.48 291.166 652.713C293.178 653.182 296.339 653.433 300.998 653.6C300.997 653.6 300.999 653.6 300.998 653.6L311.839 654.051L312.322 686.739L312.656 720.606L312.67 722.007L314.06 721.826L317.899 721.326Z" fill="black"/>
<path d="M334.472 653.6L322.654 654.054V686.226V686.451C322.654 702.851 322.654 711.234 322.188 715.555C321.959 717.673 321.598 719.14 320.807 720.065C319.97 721.047 318.834 721.199 318.004 721.311C317.97 721.316 317.938 721.32 317.906 721.324L317.899 721.326L314.06 721.826L312.67 722.007L312.656 720.606L312.322 686.739L311.839 654.051L300.998 653.6M334.472 653.6C334.474 653.6 334.472 653.6 334.472 653.6ZM334.472 653.6C339.383 653.434 342.709 653.182 344.819 652.716C345.865 652.485 346.756 652.172 347.405 651.687C348.13 651.145 348.527 650.402 348.527 649.522C348.527 649.004 348.378 648.476 348.001 648.009C347.647 647.573 347.161 647.279 346.641 647.066C345.628 646.651 344.107 646.397 341.983 646.219C337.684 645.859 330.322 645.776 318.072 645.776C305.823 645.776 298.461 645.859 294.162 646.219C292.037 646.397 290.517 646.651 289.504 647.066C288.983 647.279 288.498 647.573 288.144 648.009C287.766 648.476 287.618 649.004 287.618 649.522C287.618 650.373 287.979 651.113 288.679 651.667C289.306 652.163 290.167 652.48 291.166 652.713C293.178 653.182 296.339 653.433 300.998 653.6M300.998 653.6C300.999 653.6 300.997 653.6 300.998 653.6Z" stroke="black" stroke-width="0.357503"/>
<path d="M509.197 645.776H507.954V647.019V683.723V720.427V721.67H509.197H532.566C542.225 721.67 548.14 721.588 551.64 721.225C553.365 721.046 554.666 720.786 555.56 720.343C556.027 720.111 556.452 719.797 556.754 719.353C557.065 718.895 557.179 718.398 557.179 717.924C557.179 717.472 557.071 717.007 556.795 716.573C556.526 716.151 556.146 715.839 555.724 715.601C554.919 715.147 553.769 714.863 552.294 714.651C549.304 714.22 544.342 714.012 536.435 713.846C536.435 713.846 536.433 713.846 536.435 713.846L517.952 713.376V699.572V685.829L531.37 686.133H531.382C534.718 686.175 537.314 686.196 539.325 686.157C541.319 686.118 542.814 686.018 543.913 685.796C545 685.576 545.939 685.192 546.533 684.381C547.106 683.596 547.163 682.657 547.163 681.888C547.163 681.15 547.104 680.231 546.524 679.457C545.932 678.666 545 678.283 543.913 678.063C541.78 677.632 537.977 677.645 531.368 677.809L517.952 678.114V666.205V654.124L534.713 654.434H534.724C542.922 654.518 547.531 654.524 550.067 654.106C551.325 653.898 552.381 653.545 553.063 652.77C553.771 651.965 553.84 650.975 553.84 650.189C553.84 649.379 553.755 648.343 552.908 647.53C552.146 646.8 550.973 646.46 549.498 646.248C546.485 645.815 540.942 645.776 530.897 645.776H509.197Z" fill="black"/>
<path d="M536.435 713.846C544.342 714.012 549.304 714.22 552.294 714.651C553.769 714.863 554.919 715.147 555.724 715.601C556.146 715.839 556.526 716.151 556.795 716.573C557.071 717.007 557.179 717.472 557.179 717.924C557.179 718.398 557.065 718.895 556.754 719.353C556.452 719.797 556.027 720.111 555.56 720.343C554.666 720.786 553.365 721.046 551.64 721.225C548.14 721.588 542.225 721.67 532.566 721.67H509.197H507.954V720.427V683.723V647.019V645.776H509.197H530.897C540.942 645.776 546.485 645.815 549.498 646.248C550.973 646.46 552.146 646.8 552.908 647.53C553.755 648.343 553.84 649.379 553.84 650.189C553.84 650.975 553.771 651.965 553.063 652.77C552.381 653.545 551.325 653.898 550.067 654.106C547.531 654.524 542.922 654.518 534.724 654.434H534.713L517.952 654.124V666.205V678.114L531.368 677.809C537.977 677.645 541.78 677.632 543.913 678.063C545 678.283 545.932 678.666 546.524 679.457C547.104 680.231 547.163 681.15 547.163 681.888C547.163 682.657 547.106 683.596 546.533 684.381C545.939 685.192 545 685.576 543.913 685.796C542.814 686.018 541.319 686.118 539.325 686.157C537.314 686.196 534.718 686.175 531.382 686.133H531.37L517.952 685.829V699.572V713.376L536.435 713.846ZM536.435 713.846C536.433 713.846 536.435 713.846 536.435 713.846Z" stroke="black" stroke-width="0.357503"/>
<path d="M574.555 716.756L574.558 716.839C574.649 718.206 574.979 719.465 575.828 720.377C576.71 721.323 577.936 721.67 579.304 721.67C580.099 721.67 581.089 721.597 581.911 720.888C582.698 720.208 583.098 719.147 583.361 717.835C583.889 715.195 584.054 710.385 584.219 701.772C584.47 693.648 584.679 689.037 585.121 686.388C585.343 685.056 585.601 684.391 585.834 684.048C586.005 683.799 586.179 683.685 586.539 683.611C586.676 683.592 587.041 683.617 587.715 683.896C588.374 684.169 589.189 684.625 590.146 685.268C592.058 686.552 594.407 688.499 597 690.946C602.179 695.833 608.223 702.617 613.523 709.818L613.532 709.831C617.106 714.565 619.525 717.518 621.612 719.271C622.677 720.167 623.691 720.781 624.765 721.162C625.84 721.544 626.907 721.67 628.045 721.67C628.955 721.67 629.739 721.627 630.394 721.531C631.03 721.439 631.636 721.285 632.126 721.005C632.649 720.706 633.129 720.202 633.223 719.455C633.305 718.797 633.049 718.213 632.781 717.781C629.347 711.956 618.407 699.193 608.226 689.017C605.151 685.945 602.332 682.96 600.287 680.648C599.262 679.49 598.445 678.514 597.889 677.786C597.62 677.435 597.428 677.161 597.307 676.964C597.315 676.948 597.325 676.931 597.336 676.913C597.451 676.715 597.643 676.457 597.918 676.154C598.466 675.552 599.262 674.865 600.191 674.246L600.242 674.213L600.289 674.174C602.159 672.644 609.193 666.45 615.559 660.088C620.681 655.216 623.637 652.277 624.876 650.476C625.194 650.013 625.456 649.547 625.596 649.082C625.74 648.604 625.781 648.018 625.489 647.457C625.206 646.916 624.731 646.623 624.338 646.458C623.949 646.293 623.508 646.196 623.081 646.128C622.058 645.942 620.99 646.197 619.872 646.738C618.746 647.283 617.459 648.172 615.945 649.418C612.917 651.912 608.781 656.008 602.942 662.178C598.013 667.313 594.263 671.121 591.4 673.628C589.968 674.883 588.797 675.776 587.843 676.343C586.863 676.926 586.256 677.075 585.911 677.059C585.684 677.05 585.47 676.972 585.209 676.558C584.907 676.079 584.628 675.254 584.411 673.953C583.983 671.366 583.885 667.436 583.885 662.034C583.885 658.41 583.876 655.636 583.804 653.523C583.734 651.432 583.602 649.893 583.328 648.786C583.049 647.657 582.563 646.742 581.613 646.23C580.782 645.783 579.789 645.776 578.97 645.776H575.131H573.875L573.888 647.032L574.222 680.064C574.275 685.835 574.329 691.45 574.376 696.489C574.479 707.188 574.555 715.287 574.555 716.756Z" fill="black" stroke="black" stroke-width="0.357503"/>
</g>
</g>
<defs>
<filter id="filter0_d_21_480" x="665.781" y="637.988" width="47.6906" height="97.3415" filterUnits="userSpaceOnUse" color-interpolation-filters="sRGB">
<feFlood flood-opacity="0" result="BackgroundImageFix"/>
<feColorMatrix in="SourceAlpha" type="matrix" values="0 0 0 0 0 0 0 0 0 0 0 0 0 0 0 0 0 0 127 0" result="hardAlpha"/>
<feOffset dy="3.93443"/>
<feGaussianBlur stdDeviation="1.96721"/>
<feComposite in2="hardAlpha" operator="out"/>
<feColorMatrix type="matrix" values="0 0 0 0 0 0 0 0 0 0 0 0 0 0 0 0 0 0 0.25 0"/>
<feBlend mode="normal" in2="BackgroundImageFix" result="effect1_dropShadow_21_480"/>
<feBlend mode="normal" in="SourceGraphic" in2="effect1_dropShadow_21_480" result="shape"/>
</filter>
<clipPath id="clip0_21_480">
<rect width="869" height="869" fill="white"/>
</clipPath>
<clipPath id="clip1_21_480">
<rect width="619" height="716" fill="white" transform="translate(125 77)"/>
</clipPath>
</defs>
</svg>
