<svg width="869" height="869" viewBox="0 0 869 869" fill="none" xmlns="http://www.w3.org/2000/svg">
<g clip-path="url(#clip0_20_446)">
<rect width="869" height="869" fill="black"/>
<g clip-path="url(#clip1_20_446)">
<g clip-path="url(#clip2_20_446)">
<path d="M441.836 891.304C332.596 891.304 223.724 891.304 114.852 891.304C114.852 586.998 114.852 282.691 114.852 -21.6162C330.141 -21.6162 545.43 -21.6162 760.719 -21.6162C760.719 282.691 760.719 586.998 760.719 891.304C654.548 891.304 548.376 891.304 441.836 891.304ZM400.595 340.975C400.595 259.19 400.595 177.405 400.595 95.6426C395.188 95.6426 390.225 95.6426 385.347 95.6426C385.347 246.834 385.347 397.811 385.347 548.749C390.536 548.749 395.494 548.749 400.595 548.749C400.595 479.597 400.595 410.654 400.595 340.975ZM490.442 452.145C490.442 390.004 490.442 327.863 490.442 265.691C485.35 265.691 480.635 265.691 475.955 265.691C475.955 416.911 475.955 567.938 475.955 718.798C480.936 718.798 485.657 718.798 490.442 718.798C490.442 629.988 490.442 541.435 490.442 452.145ZM430.789 596.446C430.789 606.574 430.789 616.702 430.789 626.801C435.945 626.801 440.662 626.801 445.339 626.801C445.339 480.295 445.339 334.001 445.339 187.646C440.185 187.646 435.224 187.646 430.789 187.646C430.789 323.784 430.789 459.747 430.789 596.446ZM422.689 560.371C422.689 422.389 422.689 284.407 422.689 146.42C417.592 146.42 412.872 146.42 408.155 146.42C408.155 293.881 408.155 441.159 408.155 588.504C413.079 588.504 417.79 588.504 422.689 588.504C422.689 579.229 422.689 570.168 422.689 560.371ZM452.882 616.324C452.882 633.565 452.882 650.807 452.882 668.003C458.054 668.003 462.77 668.003 467.392 668.003C467.392 520.473 467.392 373.187 467.392 225.979C462.45 225.979 457.731 225.979 452.882 225.979C452.882 355.997 452.882 485.792 452.882 616.324ZM512.553 467.606C512.553 414.042 512.553 360.478 512.553 306.953C507.385 306.953 502.666 306.953 498.024 306.953C498.024 454.226 498.024 601.277 498.024 748.265C502.965 748.265 507.688 748.265 512.553 748.265C512.553 654.817 512.553 561.58 512.553 467.606ZM363.036 480.122C363.036 489.028 363.036 497.934 363.036 506.816C368.144 506.816 372.864 506.816 377.565 506.816C377.565 359.81 377.565 213.011 377.565 66.203C372.632 66.203 367.916 66.203 363.036 66.203C363.036 204.08 363.036 341.733 363.036 480.122ZM340.206 285.022C340.206 347.172 340.206 409.321 340.206 471.485C345.305 471.485 350.023 471.485 354.745 471.485C354.745 346.1 354.745 220.911 354.745 95.6832C349.637 95.6832 344.736 95.6832 340.206 95.6832C340.206 158.716 340.206 221.501 340.206 285.022ZM535.366 506.626C535.366 452.084 535.366 397.542 535.366 343.009C530.221 343.009 525.503 343.009 520.86 343.009C520.86 468.407 520.86 593.598 520.86 718.811C525.807 718.811 530.519 718.811 535.366 718.811C535.366 648.178 535.366 577.77 535.366 506.626ZM542.729 645.034C542.729 648.544 542.729 652.054 542.729 655.497C548.119 655.497 553.084 655.497 557.993 655.497C557.993 536.208 557.993 417.133 557.993 298.113C552.808 298.113 547.844 298.113 542.729 298.113C542.729 413.652 542.729 528.975 542.729 645.034ZM272.452 519.142C272.452 542.029 272.452 564.916 272.452 587.8C277.797 587.8 282.762 587.8 287.671 587.8C287.671 473.397 287.671 359.178 287.671 245.146C282.436 245.146 277.472 245.146 272.452 245.146C272.452 336.407 272.452 427.406 272.452 519.142ZM332.841 424.905C332.841 336.245 332.841 247.584 332.841 158.968C327.7 158.968 322.979 158.968 318.314 158.968C318.314 278.253 318.314 397.323 318.314 516.357C323.247 516.357 327.966 516.357 332.841 516.357C332.841 485.977 332.841 455.809 332.841 424.905ZM603.119 536.811C603.119 433.181 603.119 329.551 603.119 225.968C597.979 225.968 593.261 225.968 588.586 225.968C588.586 340.59 588.586 454.999 588.586 569.378C593.521 569.378 598.242 569.378 603.119 569.378C603.119 558.618 603.119 548.083 603.119 536.811ZM310.012 331.404C310.012 289.617 310.012 247.831 310.012 206.082C304.874 206.082 300.158 206.082 295.488 206.082C295.488 320.439 295.488 434.585 295.488 548.732C300.421 548.732 305.132 548.732 310.012 548.732C310.012 476.383 310.012 404.262 310.012 331.404ZM565.559 516.197C565.559 546.942 565.559 577.687 565.559 608.38C570.702 608.38 575.42 608.38 580.079 608.38C580.079 494.003 580.079 379.84 580.079 265.724C575.147 265.724 570.426 265.724 565.559 265.724C565.559 349.118 565.559 432.29 565.559 516.197ZM250.359 525.031C250.359 529.03 250.359 533.029 250.359 536.976C255.501 536.976 260.217 536.976 264.888 536.976C264.888 450.091 264.888 363.41 264.888 276.763C259.954 276.763 255.236 276.763 250.359 276.763C250.359 359.415 250.359 441.855 250.359 525.031ZM625.212 321.833C625.212 307.037 625.212 292.24 625.212 277.488C620.059 277.488 615.34 277.488 610.69 277.488C610.69 364.379 610.69 451.062 610.69 537.706C615.618 537.706 620.335 537.706 625.212 537.706C625.212 465.854 625.212 394.212 625.212 321.833ZM242.994 478.65C242.994 419.446 242.994 360.243 242.994 301.028C237.632 301.028 232.668 301.028 227.711 301.028C227.711 366.538 227.711 431.858 227.711 497.215C232.849 497.215 237.803 497.215 242.994 497.215C242.994 491.122 242.994 485.254 242.994 478.65ZM633.313 368.952C633.313 417.093 633.313 465.234 633.313 513.466C638.366 513.466 643.08 513.466 647.825 513.466C647.825 447.928 647.825 382.545 647.825 317.272C642.873 317.272 638.156 317.272 633.313 317.272C633.313 334.403 633.313 351.309 633.313 368.952ZM655.406 362.326C655.406 403.129 655.406 443.931 655.406 484.701C660.781 484.701 665.744 484.701 670.664 484.701C670.664 437.332 670.664 390.17 670.664 343.021C665.49 343.021 660.526 343.021 655.406 343.021C655.406 349.356 655.406 355.473 655.406 362.326ZM220.164 439.63C220.164 403.023 220.164 366.416 220.164 329.716C215.102 329.716 210.386 329.716 205.662 329.716C205.662 377.119 205.662 424.342 205.662 471.452C210.634 471.452 215.354 471.452 220.164 471.452C220.164 460.935 220.164 450.65 220.164 439.63ZM197.334 427.85C197.334 408.147 197.334 388.444 197.334 368.784C192.187 368.784 187.467 368.784 182.804 368.784C182.804 394.566 182.804 420.141 182.804 445.681C187.738 445.681 192.456 445.681 197.334 445.681C197.334 439.842 197.334 434.214 197.334 427.85ZM692.967 403.554C692.967 391.963 692.967 380.372 692.967 368.814C687.76 368.814 683.05 368.814 678.446 368.814C678.446 394.617 678.446 420.18 678.446 445.671C683.386 445.671 688.097 445.671 692.967 445.671C692.967 431.729 692.967 418.01 692.967 403.554Z" fill="black"/>
<path d="M400.596 341.343C400.596 410.654 400.596 479.597 400.596 548.749C395.495 548.749 390.536 548.749 385.347 548.749C385.347 397.811 385.347 246.834 385.347 95.6426C390.226 95.6426 395.189 95.6426 400.596 95.6426C400.596 177.405 400.596 259.19 400.596 341.343Z" fill="white"/>
<path d="M490.442 452.513C490.442 541.435 490.442 629.988 490.442 718.798C485.658 718.798 480.937 718.798 475.956 718.798C475.956 567.938 475.956 416.911 475.956 265.691C480.635 265.691 485.35 265.691 490.442 265.691C490.442 327.863 490.442 390.004 490.442 452.513Z" fill="white"/>
<path d="M430.789 596.077C430.789 459.747 430.789 323.784 430.789 187.646C435.224 187.646 440.185 187.646 445.339 187.646C445.339 334.001 445.339 480.295 445.339 626.801C440.662 626.801 435.945 626.801 430.789 626.801C430.789 616.702 430.789 606.574 430.789 596.077Z" fill="white"/>
<path d="M422.689 560.739C422.689 570.168 422.689 579.229 422.689 588.504C417.79 588.504 413.079 588.504 408.155 588.504C408.155 441.159 408.155 293.88 408.155 146.419C412.872 146.419 417.593 146.419 422.689 146.419C422.689 284.407 422.689 422.389 422.689 560.739Z" fill="white"/>
<path d="M452.882 615.956C452.882 485.792 452.882 355.997 452.882 225.979C457.731 225.979 462.45 225.979 467.392 225.979C467.392 373.186 467.392 520.473 467.392 668.003C462.77 668.003 458.054 668.003 452.882 668.003C452.882 650.807 452.882 633.565 452.882 615.956Z" fill="white"/>
<path d="M512.553 467.974C512.553 561.58 512.553 654.817 512.553 748.265C507.688 748.265 502.966 748.265 498.024 748.265C498.024 601.277 498.024 454.226 498.024 306.953C502.667 306.953 507.385 306.953 512.553 306.953C512.553 360.478 512.553 414.042 512.553 467.974Z" fill="white"/>
<path d="M363.036 479.754C363.036 341.733 363.036 204.08 363.036 66.2031C367.916 66.2031 372.632 66.2031 377.565 66.2031C377.565 213.011 377.565 359.81 377.565 506.816C372.864 506.816 368.144 506.816 363.036 506.816C363.036 497.934 363.036 489.028 363.036 479.754Z" fill="white"/>
<path d="M340.206 284.654C340.206 221.501 340.206 158.716 340.206 95.6831C344.735 95.6831 349.637 95.6831 354.745 95.6831C354.745 220.911 354.745 346.1 354.745 471.485C350.023 471.485 345.305 471.485 340.206 471.485C340.206 409.321 340.206 347.172 340.206 284.654Z" fill="white"/>
<path d="M535.366 506.994C535.366 577.77 535.366 648.178 535.366 718.811C530.519 718.811 525.807 718.811 520.86 718.811C520.86 593.598 520.86 468.406 520.86 343.008C525.503 343.008 530.221 343.008 535.366 343.008C535.366 397.542 535.366 452.084 535.366 506.994Z" fill="white"/>
<path d="M542.729 644.666C542.729 528.975 542.729 413.652 542.729 298.113C547.844 298.113 552.808 298.113 557.993 298.113C557.993 417.133 557.993 536.208 557.993 655.497C553.083 655.497 548.119 655.497 542.729 655.497C542.729 652.054 542.729 648.543 542.729 644.666Z" fill="white"/>
<path d="M272.452 518.774C272.452 427.406 272.452 336.407 272.452 245.146C277.472 245.146 282.436 245.146 287.671 245.146C287.671 359.179 287.671 473.397 287.671 587.8C282.762 587.8 277.797 587.8 272.452 587.8C272.452 564.916 272.452 542.029 272.452 518.774Z" fill="white"/>
<path d="M332.841 425.273C332.841 455.809 332.841 485.977 332.841 516.357C327.966 516.357 323.248 516.357 318.314 516.357C318.314 397.323 318.314 278.253 318.314 158.968C322.98 158.968 327.7 158.968 332.841 158.968C332.841 247.584 332.841 336.245 332.841 425.273Z" fill="white"/>
<path d="M603.119 537.179C603.119 548.082 603.119 558.617 603.119 569.378C598.242 569.378 593.521 569.378 588.586 569.378C588.586 454.999 588.586 340.59 588.586 225.968C593.26 225.968 597.979 225.968 603.119 225.968C603.119 329.551 603.119 433.181 603.119 537.179Z" fill="white"/>
<path d="M310.012 331.772C310.012 404.262 310.012 476.383 310.012 548.732C305.132 548.732 300.421 548.732 295.488 548.732C295.488 434.585 295.488 320.439 295.488 206.082C300.158 206.082 304.874 206.082 310.012 206.082C310.012 247.831 310.012 289.617 310.012 331.772Z" fill="white"/>
<path d="M565.559 515.829C565.559 432.289 565.559 349.118 565.559 265.724C570.426 265.724 575.147 265.724 580.079 265.724C580.079 379.84 580.079 494.003 580.079 608.38C575.42 608.38 570.702 608.38 565.559 608.38C565.559 577.687 565.559 546.942 565.559 515.829Z" fill="white"/>
<path d="M250.359 524.663C250.359 441.855 250.359 359.415 250.359 276.763C255.236 276.763 259.954 276.763 264.888 276.763C264.888 363.41 264.888 450.091 264.888 536.976C260.217 536.976 255.502 536.976 250.359 536.976C250.359 533.029 250.359 529.03 250.359 524.663Z" fill="white"/>
<path d="M625.213 322.202C625.213 394.212 625.213 465.854 625.213 537.706C620.335 537.706 615.618 537.706 610.69 537.706C610.69 451.062 610.69 364.379 610.69 277.488C615.34 277.488 620.06 277.488 625.213 277.488C625.213 292.24 625.213 307.037 625.213 322.202Z" fill="white"/>
<path d="M242.994 479.017C242.994 485.254 242.994 491.122 242.994 497.215C237.803 497.215 232.849 497.215 227.711 497.215C227.711 431.858 227.711 366.538 227.711 301.028C232.669 301.028 237.633 301.028 242.994 301.028C242.994 360.243 242.994 419.446 242.994 479.017Z" fill="white"/>
<path d="M633.313 368.583C633.313 351.309 633.313 334.403 633.313 317.271C638.156 317.271 642.874 317.271 647.825 317.271C647.825 382.545 647.825 447.928 647.825 513.465C643.08 513.465 638.367 513.465 633.313 513.465C633.313 465.234 633.313 417.093 633.313 368.583Z" fill="white"/>
<path d="M655.406 361.957C655.406 355.472 655.406 349.355 655.406 343.021C660.526 343.021 665.49 343.021 670.664 343.021C670.664 390.17 670.664 437.332 670.664 484.7C665.744 484.7 660.781 484.7 655.406 484.7C655.406 443.931 655.406 403.128 655.406 361.957Z" fill="white"/>
<path d="M220.164 439.998C220.164 450.65 220.164 460.935 220.164 471.452C215.354 471.452 210.634 471.452 205.662 471.452C205.662 424.342 205.662 377.119 205.662 329.716C210.387 329.716 215.103 329.716 220.164 329.716C220.164 366.416 220.164 403.023 220.164 439.998Z" fill="white"/>
<path d="M197.334 428.218C197.334 434.214 197.334 439.842 197.334 445.681C192.457 445.681 187.738 445.681 182.804 445.681C182.804 420.141 182.804 394.566 182.804 368.784C187.467 368.784 192.187 368.784 197.334 368.784C197.334 388.444 197.334 408.147 197.334 428.218Z" fill="white"/>
<path d="M692.967 403.923C692.967 418.01 692.967 431.729 692.967 445.671C688.098 445.671 683.386 445.671 678.446 445.671C678.446 420.18 678.446 394.617 678.446 368.814C683.05 368.814 687.76 368.814 692.967 368.814C692.967 380.372 692.967 391.963 692.967 403.923Z" fill="white"/>
</g>
</g>
</g>
<defs>
<clipPath id="clip0_20_446">
<rect width="869" height="869" fill="white"/>
</clipPath>
<clipPath id="clip1_20_446">
<rect width="869" height="869" fill="white"/>
</clipPath>
<clipPath id="clip2_20_446">
<rect width="645.868" height="912.921" fill="white" transform="translate(114.115 -22.3525)"/>
</clipPath>
</defs>
</svg>
