<svg version="1.1" id="Layer_1" xmlns="http://www.w3.org/2000/svg" xmlns:xlink="http://www.w3.org/1999/xlink" x="0px" y="0px"
	 width="100%" viewBox="0 0 877 1240" enable-background="new 0 0 877 1240" xml:space="preserve">
<path fill="#000000" opacity="1.000000" stroke="none" 
	d="
M445.000000,1241.000000 
	C296.666656,1241.000000 148.833328,1241.000000 1.000000,1241.000000 
	C1.000000,827.666687 1.000000,414.333344 1.000000,1.000000 
	C293.333344,1.000000 585.666687,1.000000 878.000000,1.000000 
	C878.000000,414.333344 878.000000,827.666687 878.000000,1241.000000 
	C733.833313,1241.000000 589.666687,1241.000000 445.000000,1241.000000 
M389.000793,493.500000 
	C389.000793,382.412903 389.000793,271.325806 389.000793,160.270111 
	C381.658966,160.270111 374.919952,160.270111 368.295593,160.270111 
	C368.295593,365.630615 368.295593,570.698730 368.295593,775.715210 
	C375.341370,775.715210 382.074310,775.715210 389.000793,775.715210 
	C389.000793,681.787048 389.000793,588.143494 389.000793,493.500000 
M510.999969,644.500000 
	C510.999969,560.094971 510.999969,475.689941 510.999969,391.243103 
	C504.086182,391.243103 497.683228,391.243103 491.329407,391.243103 
	C491.329407,596.642334 491.329407,801.778625 491.329407,1006.688110 
	C498.092896,1006.688110 504.503693,1006.688110 510.999969,1006.688110 
	C510.999969,886.059265 510.999969,765.779602 510.999969,644.500000 
M429.999115,840.500000 
	C429.999115,854.257019 429.999115,868.013977 429.999115,881.730957 
	C437.000732,881.730957 443.406403,881.730957 449.756317,881.730957 
	C449.756317,682.735535 449.756317,484.027435 449.756317,285.236511 
	C442.757935,285.236511 436.022034,285.236511 429.999115,285.236511 
	C429.999115,470.150055 429.999115,654.825012 429.999115,840.500000 
M419.000641,791.500000 
	C419.000641,604.082520 419.000641,416.665009 419.000641,229.239502 
	C412.080719,229.239502 405.670776,229.239502 399.265991,229.239502 
	C399.265991,429.532379 399.265991,629.577881 399.265991,829.712830 
	C405.951416,829.712830 412.348755,829.712830 419.000641,829.712830 
	C419.000641,817.114868 419.000641,804.807434 419.000641,791.500000 
M459.999573,867.500000 
	C459.999573,890.918762 459.999573,914.337524 459.999573,937.694275 
	C467.021545,937.694275 473.425598,937.694275 479.701172,937.694275 
	C479.701172,737.308228 479.701172,537.251892 479.701172,337.302521 
	C472.991333,337.302521 466.583588,337.302521 459.999573,337.302521 
	C459.999573,513.903259 459.999573,690.201660 459.999573,867.500000 
M541.024414,665.500000 
	C541.024414,592.745056 541.024414,519.990051 541.024414,447.287842 
	C534.006042,447.287842 527.599487,447.287842 521.295288,447.287842 
	C521.295288,647.326172 521.295288,847.061768 521.295288,1046.713257 
	C528.005554,1046.713257 534.417542,1046.713257 541.024414,1046.713257 
	C541.024414,919.784424 541.024414,793.142212 541.024414,665.500000 
M338.000061,682.500000 
	C338.000061,694.596802 338.000061,706.693604 338.000061,718.758301 
	C344.936981,718.758301 351.345367,718.758301 357.729187,718.758301 
	C357.729187,519.082520 357.729187,319.689026 357.729187,120.282951 
	C351.030029,120.282951 344.626740,120.282951 338.000061,120.282951 
	C338.000061,307.558594 338.000061,494.529297 338.000061,682.500000 
M307.000031,417.500000 
	C307.000031,501.916565 307.000031,586.333130 307.000031,670.769043 
	C313.924164,670.769043 320.330780,670.769043 326.741943,670.769043 
	C326.741943,500.460846 326.741943,330.419342 326.741943,160.325272 
	C319.806091,160.325272 313.150940,160.325272 307.000031,160.325272 
	C307.000031,245.941605 307.000031,331.220795 307.000031,417.500000 
M572.000854,718.500000 
	C572.000854,644.416870 572.000854,570.333801 572.000854,496.261841 
	C565.014832,496.261841 558.609009,496.261841 552.303833,496.261841 
	C552.303833,666.587280 552.303833,836.631897 552.303833,1006.706543 
	C559.021729,1006.706543 565.418945,1006.706543 572.000854,1006.706543 
	C572.000854,910.767151 572.000854,815.133545 572.000854,718.500000 
M581.999146,906.495728 
	C581.999146,911.263367 581.999146,916.031067 581.999146,920.708618 
	C589.318176,920.708618 596.059021,920.708618 602.725952,920.708618 
	C602.725952,758.680176 602.725952,596.943298 602.725952,435.281799 
	C595.685181,435.281799 588.945068,435.281799 581.999146,435.281799 
	C581.999146,592.215881 581.999146,748.856323 581.999146,906.495728 
M214.999344,735.500000 
	C214.999344,766.586975 214.999344,797.674011 214.999344,828.756958 
	C222.257401,828.756958 228.999222,828.756958 235.664703,828.756958 
	C235.664703,673.365540 235.664703,518.224976 235.664703,363.337769 
	C228.557022,363.337769 221.815735,363.337769 214.999344,363.337769 
	C214.999344,487.295044 214.999344,610.897522 214.999344,735.500000 
M296.999939,607.500000 
	C296.999939,487.074646 296.999939,366.649292 296.999939,246.283844 
	C290.018433,246.283844 283.609039,246.283844 277.273682,246.283844 
	C277.273682,408.305664 277.273682,570.036316 277.273682,731.717529 
	C283.972809,731.717529 290.379913,731.717529 296.999939,731.717529 
	C296.999939,690.452087 296.999939,649.476013 296.999939,607.500000 
M664.000000,759.500000 
	C664.000000,618.741211 664.000000,477.982391 664.000000,337.288818 
	C657.020752,337.288818 650.613892,337.288818 644.266479,337.288818 
	C644.266479,492.976868 644.266479,648.376038 644.266479,803.734436 
	C650.968018,803.734436 657.377930,803.734436 664.000000,803.734436 
	C664.000000,789.118774 664.000000,774.809387 664.000000,759.500000 
M266.001099,480.500000 
	C266.001099,423.741852 266.001099,366.983704 266.001099,310.276855 
	C259.023987,310.276855 252.620605,310.276855 246.278900,310.276855 
	C246.278900,465.606323 246.278900,620.647583 246.278900,775.690857 
	C252.977493,775.690857 259.374664,775.690857 266.001099,775.690857 
	C266.001099,677.421265 266.001099,579.460632 266.001099,480.500000 
M612.999268,731.500000 
	C612.999268,773.260498 612.999268,815.020996 612.999268,856.709839 
	C619.982117,856.709839 626.388977,856.709839 632.715820,856.709839 
	C632.715820,701.354492 632.715820,546.289368 632.715820,391.287842 
	C626.017883,391.287842 619.607300,391.287842 612.999268,391.287842 
	C612.999268,504.560394 612.999268,617.530212 612.999268,731.500000 
M185.000061,743.498413 
	C185.000061,748.930420 185.000061,754.362488 185.000061,759.723999 
	C191.983154,759.723999 198.386597,759.723999 204.729095,759.723999 
	C204.729095,641.710205 204.729095,523.972595 204.729095,406.281555 
	C198.029419,406.281555 191.622253,406.281555 185.000061,406.281555 
	C185.000061,518.546448 185.000061,630.522644 185.000061,743.498413 
M694.000244,467.500000 
	C694.000244,447.401855 694.000244,427.303680 694.000244,407.266235 
	C687.003052,407.266235 680.594238,407.266235 674.281006,407.266235 
	C674.281006,525.288757 674.281006,643.028870 674.281006,760.714661 
	C680.972168,760.714661 687.377563,760.714661 694.000244,760.714661 
	C694.000244,663.119690 694.000244,565.809814 694.000244,467.500000 
M174.999969,680.500000 
	C174.999969,600.085449 174.999969,519.670898 174.999969,439.240723 
	C167.719696,439.240723 160.978912,439.240723 154.247101,439.240723 
	C154.247101,528.221863 154.247101,616.944458 154.247101,705.717102 
	C161.224213,705.717102 167.950958,705.717102 174.999969,705.717102 
	C174.999969,697.440979 174.999969,689.470520 174.999969,680.500000 
M705.000000,531.500000 
	C705.000000,596.889221 705.000000,662.278442 705.000000,727.789795 
	C711.861572,727.789795 718.261475,727.789795 724.704529,727.789795 
	C724.704529,638.771484 724.704529,549.963684 724.704529,461.304199 
	C717.981384,461.304199 711.575256,461.304199 705.000000,461.304199 
	C705.000000,484.573303 705.000000,507.536652 705.000000,531.500000 
M734.999390,522.500000 
	C734.999390,577.921448 734.999390,633.342957 734.999390,688.719177 
	C742.297913,688.719177 749.037109,688.719177 755.717651,688.719177 
	C755.717651,624.379089 755.717651,560.320251 755.717651,496.278381 
	C748.691406,496.278381 741.951843,496.278381 734.999390,496.278381 
	C734.999390,504.882751 734.999390,513.191345 734.999390,522.500000 
M144.000000,627.500000 
	C144.000000,577.777832 144.000000,528.055725 144.000000,478.206543 
	C137.126724,478.206543 130.723038,478.206543 124.307953,478.206543 
	C124.307953,542.592712 124.307953,606.735413 124.307953,670.723694 
	C131.059586,670.723694 137.468811,670.723694 144.000000,670.723694 
	C144.000000,656.438110 144.000000,642.469055 144.000000,627.500000 
M112.999954,611.500000 
	C112.999954,584.737549 112.999954,557.975159 112.999954,531.271606 
	C106.011238,531.271606 99.602058,531.271606 93.269485,531.271606 
	C93.269485,566.291809 93.269485,601.028748 93.269485,635.718994 
	C99.969658,635.718994 106.376701,635.718994 112.999954,635.718994 
	C112.999954,627.788025 112.999954,620.144043 112.999954,611.500000 
M786.001221,578.500000 
	C786.001221,562.755920 786.001221,547.011902 786.001221,531.312744 
	C778.930969,531.312744 772.535339,531.312744 766.284363,531.312744 
	C766.284363,566.361023 766.284363,601.082275 766.284363,635.706421 
	C772.991882,635.706421 779.389465,635.706421 786.001221,635.706421 
	C786.001221,616.768250 786.001221,598.134155 786.001221,578.500000 
z"/>
<path fill="#FFFFFF" opacity="1.000000" stroke="none" 
	d="
M389.000793,494.000000 
	C389.000793,588.143494 389.000793,681.787048 389.000793,775.715210 
	C382.074310,775.715210 375.341370,775.715210 368.295593,775.715210 
	C368.295593,570.698730 368.295593,365.630615 368.295593,160.270111 
	C374.919952,160.270111 381.658966,160.270111 389.000793,160.270111 
	C389.000793,271.325806 389.000793,382.412903 389.000793,494.000000 
z"/>
<path fill="#FFFFFF" opacity="1.000000" stroke="none" 
	d="
M510.999969,645.000000 
	C510.999969,765.779602 510.999969,886.059265 510.999969,1006.688110 
	C504.503693,1006.688110 498.092896,1006.688110 491.329407,1006.688110 
	C491.329407,801.778625 491.329407,596.642334 491.329407,391.243103 
	C497.683228,391.243103 504.086182,391.243103 510.999969,391.243103 
	C510.999969,475.689941 510.999969,560.094971 510.999969,645.000000 
z"/>
<path fill="#FFFFFF" opacity="1.000000" stroke="none" 
	d="
M429.999115,840.000000 
	C429.999115,654.825012 429.999115,470.150055 429.999115,285.236511 
	C436.022034,285.236511 442.757935,285.236511 449.756317,285.236511 
	C449.756317,484.027435 449.756317,682.735535 449.756317,881.730957 
	C443.406403,881.730957 437.000732,881.730957 429.999115,881.730957 
	C429.999115,868.013977 429.999115,854.257019 429.999115,840.000000 
z"/>
<path fill="#FFFFFF" opacity="1.000000" stroke="none" 
	d="
M419.000641,792.000000 
	C419.000641,804.807434 419.000641,817.114868 419.000641,829.712830 
	C412.348755,829.712830 405.951416,829.712830 399.265991,829.712830 
	C399.265991,629.577881 399.265991,429.532379 399.265991,229.239502 
	C405.670776,229.239502 412.080719,229.239502 419.000641,229.239502 
	C419.000641,416.665009 419.000641,604.082520 419.000641,792.000000 
z"/>
<path fill="#FFFFFF" opacity="1.000000" stroke="none" 
	d="
M459.999573,867.000000 
	C459.999573,690.201660 459.999573,513.903259 459.999573,337.302521 
	C466.583588,337.302521 472.991333,337.302521 479.701172,337.302521 
	C479.701172,537.251892 479.701172,737.308228 479.701172,937.694275 
	C473.425598,937.694275 467.021545,937.694275 459.999573,937.694275 
	C459.999573,914.337524 459.999573,890.918762 459.999573,867.000000 
z"/>
<path fill="#FFFFFF" opacity="1.000000" stroke="none" 
	d="
M541.024414,666.000000 
	C541.024414,793.142212 541.024414,919.784424 541.024414,1046.713257 
	C534.417542,1046.713257 528.005554,1046.713257 521.295288,1046.713257 
	C521.295288,847.061768 521.295288,647.326172 521.295288,447.287842 
	C527.599487,447.287842 534.006042,447.287842 541.024414,447.287842 
	C541.024414,519.990051 541.024414,592.745056 541.024414,666.000000 
z"/>
<path fill="#FFFFFF" opacity="1.000000" stroke="none" 
	d="
M338.000061,682.000000 
	C338.000061,494.529297 338.000061,307.558594 338.000061,120.282951 
	C344.626740,120.282951 351.030029,120.282951 357.729187,120.282951 
	C357.729187,319.689026 357.729187,519.082520 357.729187,718.758301 
	C351.345367,718.758301 344.936981,718.758301 338.000061,718.758301 
	C338.000061,706.693604 338.000061,694.596802 338.000061,682.000000 
z"/>
<path fill="#FFFFFF" opacity="1.000000" stroke="none" 
	d="
M307.000031,417.000000 
	C307.000031,331.220795 307.000031,245.941605 307.000031,160.325272 
	C313.150940,160.325272 319.806091,160.325272 326.741943,160.325272 
	C326.741943,330.419342 326.741943,500.460846 326.741943,670.769043 
	C320.330780,670.769043 313.924164,670.769043 307.000031,670.769043 
	C307.000031,586.333130 307.000031,501.916565 307.000031,417.000000 
z"/>
<path fill="#FFFFFF" opacity="1.000000" stroke="none" 
	d="
M572.000854,719.000000 
	C572.000854,815.133545 572.000854,910.767151 572.000854,1006.706543 
	C565.418945,1006.706543 559.021729,1006.706543 552.303833,1006.706543 
	C552.303833,836.631897 552.303833,666.587280 552.303833,496.261841 
	C558.609009,496.261841 565.014832,496.261841 572.000854,496.261841 
	C572.000854,570.333801 572.000854,644.416870 572.000854,719.000000 
z"/>
<path fill="#FFFFFF" opacity="1.000000" stroke="none" 
	d="
M581.999146,905.996216 
	C581.999146,748.856323 581.999146,592.215881 581.999146,435.281799 
	C588.945068,435.281799 595.685181,435.281799 602.725952,435.281799 
	C602.725952,596.943298 602.725952,758.680176 602.725952,920.708618 
	C596.059021,920.708618 589.318176,920.708618 581.999146,920.708618 
	C581.999146,916.031067 581.999146,911.263367 581.999146,905.996216 
z"/>
<path fill="#FFFFFF" opacity="1.000000" stroke="none" 
	d="
M214.999344,735.000000 
	C214.999344,610.897522 214.999344,487.295044 214.999344,363.337769 
	C221.815735,363.337769 228.557022,363.337769 235.664703,363.337769 
	C235.664703,518.224976 235.664703,673.365540 235.664703,828.756958 
	C228.999222,828.756958 222.257401,828.756958 214.999344,828.756958 
	C214.999344,797.674011 214.999344,766.586975 214.999344,735.000000 
z"/>
<path fill="#FFFFFF" opacity="1.000000" stroke="none" 
	d="
M296.999939,608.000000 
	C296.999939,649.476013 296.999939,690.452087 296.999939,731.717529 
	C290.379913,731.717529 283.972809,731.717529 277.273682,731.717529 
	C277.273682,570.036316 277.273682,408.305664 277.273682,246.283844 
	C283.609039,246.283844 290.018433,246.283844 296.999939,246.283844 
	C296.999939,366.649292 296.999939,487.074646 296.999939,608.000000 
z"/>
<path fill="#FFFFFF" opacity="1.000000" stroke="none" 
	d="
M664.000000,760.000000 
	C664.000000,774.809387 664.000000,789.118774 664.000000,803.734436 
	C657.377930,803.734436 650.968018,803.734436 644.266479,803.734436 
	C644.266479,648.376038 644.266479,492.976868 644.266479,337.288818 
	C650.613892,337.288818 657.020752,337.288818 664.000000,337.288818 
	C664.000000,477.982391 664.000000,618.741211 664.000000,760.000000 
z"/>
<path fill="#FFFFFF" opacity="1.000000" stroke="none" 
	d="
M266.001099,481.000000 
	C266.001099,579.460632 266.001099,677.421265 266.001099,775.690857 
	C259.374664,775.690857 252.977493,775.690857 246.278900,775.690857 
	C246.278900,620.647583 246.278900,465.606323 246.278900,310.276855 
	C252.620605,310.276855 259.023987,310.276855 266.001099,310.276855 
	C266.001099,366.983704 266.001099,423.741852 266.001099,481.000000 
z"/>
<path fill="#FFFFFF" opacity="1.000000" stroke="none" 
	d="
M612.999268,731.000000 
	C612.999268,617.530212 612.999268,504.560394 612.999268,391.287842 
	C619.607300,391.287842 626.017883,391.287842 632.715820,391.287842 
	C632.715820,546.289368 632.715820,701.354492 632.715820,856.709839 
	C626.388977,856.709839 619.982117,856.709839 612.999268,856.709839 
	C612.999268,815.020996 612.999268,773.260498 612.999268,731.000000 
z"/>
<path fill="#FFFFFF" opacity="1.000000" stroke="none" 
	d="
M185.000061,742.998596 
	C185.000061,630.522644 185.000061,518.546448 185.000061,406.281555 
	C191.622253,406.281555 198.029419,406.281555 204.729095,406.281555 
	C204.729095,523.972595 204.729095,641.710205 204.729095,759.723999 
	C198.386597,759.723999 191.983154,759.723999 185.000061,759.723999 
	C185.000061,754.362488 185.000061,748.930420 185.000061,742.998596 
z"/>
<path fill="#FFFFFF" opacity="1.000000" stroke="none" 
	d="
M694.000244,468.000000 
	C694.000244,565.809814 694.000244,663.119690 694.000244,760.714661 
	C687.377563,760.714661 680.972168,760.714661 674.281006,760.714661 
	C674.281006,643.028870 674.281006,525.288757 674.281006,407.266235 
	C680.594238,407.266235 687.003052,407.266235 694.000244,407.266235 
	C694.000244,427.303680 694.000244,447.401855 694.000244,468.000000 
z"/>
<path fill="#FFFFFF" opacity="1.000000" stroke="none" 
	d="
M174.999969,681.000000 
	C174.999969,689.470520 174.999969,697.440979 174.999969,705.717102 
	C167.950958,705.717102 161.224213,705.717102 154.247101,705.717102 
	C154.247101,616.944458 154.247101,528.221863 154.247101,439.240723 
	C160.978912,439.240723 167.719696,439.240723 174.999969,439.240723 
	C174.999969,519.670898 174.999969,600.085449 174.999969,681.000000 
z"/>
<path fill="#FFFFFF" opacity="1.000000" stroke="none" 
	d="
M705.000000,531.000000 
	C705.000000,507.536652 705.000000,484.573303 705.000000,461.304199 
	C711.575256,461.304199 717.981384,461.304199 724.704529,461.304199 
	C724.704529,549.963684 724.704529,638.771484 724.704529,727.789795 
	C718.261475,727.789795 711.861572,727.789795 705.000000,727.789795 
	C705.000000,662.278442 705.000000,596.889221 705.000000,531.000000 
z"/>
<path fill="#FFFFFF" opacity="1.000000" stroke="none" 
	d="
M734.999390,522.000000 
	C734.999390,513.191345 734.999390,504.882751 734.999390,496.278381 
	C741.951843,496.278381 748.691406,496.278381 755.717651,496.278381 
	C755.717651,560.320251 755.717651,624.379089 755.717651,688.719177 
	C749.037109,688.719177 742.297913,688.719177 734.999390,688.719177 
	C734.999390,633.342957 734.999390,577.921448 734.999390,522.000000 
z"/>
<path fill="#FFFFFF" opacity="1.000000" stroke="none" 
	d="
M144.000000,628.000000 
	C144.000000,642.469055 144.000000,656.438110 144.000000,670.723694 
	C137.468811,670.723694 131.059586,670.723694 124.307953,670.723694 
	C124.307953,606.735413 124.307953,542.592712 124.307953,478.206543 
	C130.723038,478.206543 137.126724,478.206543 144.000000,478.206543 
	C144.000000,528.055725 144.000000,577.777832 144.000000,628.000000 
z"/>
<path fill="#FFFFFF" opacity="1.000000" stroke="none" 
	d="
M112.999954,612.000000 
	C112.999954,620.144043 112.999954,627.788025 112.999954,635.718994 
	C106.376701,635.718994 99.969658,635.718994 93.269485,635.718994 
	C93.269485,601.028748 93.269485,566.291809 93.269485,531.271606 
	C99.602058,531.271606 106.011238,531.271606 112.999954,531.271606 
	C112.999954,557.975159 112.999954,584.737549 112.999954,612.000000 
z"/>
<path fill="#FFFFFF" opacity="1.000000" stroke="none" 
	d="
M786.001221,579.000000 
	C786.001221,598.134155 786.001221,616.768250 786.001221,635.706421 
	C779.389465,635.706421 772.991882,635.706421 766.284363,635.706421 
	C766.284363,601.082275 766.284363,566.361023 766.284363,531.312744 
	C772.535339,531.312744 778.930969,531.312744 786.001221,531.312744 
	C786.001221,547.011902 786.001221,562.755920 786.001221,579.000000 
z"/>
</svg>