<?xml version="1.0" standalone="no"?>
<!DOCTYPE svg PUBLIC "-//W3C//DTD SVG 20010904//EN"
 "http://www.w3.org/TR/2001/REC-SVG-20010904/DTD/svg10.dtd">
<svg version="1.0" xmlns="http://www.w3.org/2000/svg"
 width="554.000000pt" height="554.000000pt" viewBox="0 0 554.000000 554.000000"
 preserveAspectRatio="xMidYMid meet">

<g transform="translate(0.000000,554.000000) scale(0.100000,-0.100000)"
fill="#000000" stroke="none">
<path d="M0 2770 l0 -2770 2770 0 2770 0 0 2770 0 2770 -2770 0 -2770 0 0
-2770z m3333 1657 c364 -239 746 -489 850 -556 103 -68 187 -127 187 -131 0
-4 -51 -41 -112 -82 -62 -42 -304 -205 -538 -363 -630 -425 -914 -616 -967
-651 l-48 -31 -120 78 c-66 43 -120 83 -120 89 0 5 46 41 103 79 l103 68 -265
174 c-147 96 -416 272 -598 392 -183 120 -338 221 -345 224 -7 2 -59 -27 -117
-66 -58 -39 -109 -71 -113 -71 -5 0 -61 35 -125 78 l-118 78 198 133 c108 74
393 265 632 426 239 161 525 354 635 428 110 75 203 136 208 136 4 1 305 -194
670 -432z m1157 -1165 l0 -177 -107 -72 c-60 -39 -326 -218 -593 -398 -267
-180 -529 -356 -582 -392 l-98 -66 0 -444 c0 -243 2 -443 5 -443 3 0 53 33
112 73 60 41 288 194 508 342 220 148 474 319 565 380 91 61 171 115 178 119
9 6 12 -28 12 -157 l0 -164 -157 -105 c-87 -59 -273 -184 -413 -278 -672 -454
-1069 -720 -1074 -720 -3 0 -6 354 -6 788 l1 787 111 75 c142 95 553 372 1048
705 212 142 405 274 430 292 25 18 48 33 53 33 4 0 7 -80 7 -178z m-3473 58
l113 -73 2 -625 3 -626 55 -37 c62 -42 656 -433 891 -587 86 -56 159 -102 162
-102 4 0 7 277 7 616 0 536 2 615 15 611 8 -4 68 -42 135 -87 l120 -81 0 -784
c0 -436 -4 -785 -9 -785 -5 0 -170 106 -367 236 -374 246 -670 441 -1056 695
l-228 150 0 791 0 790 23 -14 c12 -8 73 -48 134 -88z"/>
<path d="M2610 4503 c-30 -21 -242 -164 -470 -317 -228 -153 -423 -286 -432
-295 -18 -17 -4 -26 1024 -698 l171 -112 171 116 c94 64 314 213 489 331 174
117 317 217 317 222 0 7 -88 66 -545 364 -126 82 -322 210 -435 284 -113 74
-212 137 -220 139 -8 2 -40 -13 -70 -34z"/>
</g>
</svg>
