<svg width="740" height="740" viewBox="0 0 740 740" fill="none" xmlns="http://www.w3.org/2000/svg">
<g clip-path="url(#clip0_20_322)">
<path d="M0.5 369.833V739.167H369.833H739.167V369.833V0.499799H369.833H0.5V369.833ZM444.9 148.9C493.433 180.766 544.367 214.1 558.233 223.033C571.967 232.1 583.167 239.966 583.167 240.5C583.167 241.033 576.367 245.966 568.233 251.433C559.967 257.033 527.7 278.766 496.5 299.833C412.5 356.5 374.633 381.966 367.567 386.633L361.167 390.766L345.167 380.366C336.367 374.633 329.167 369.3 329.167 368.5C329.167 367.833 335.3 363.033 342.9 357.966L356.633 348.9L321.3 325.7C301.7 312.9 265.833 289.433 241.567 273.433C217.167 257.433 196.5 243.966 195.567 243.566C194.633 243.3 187.7 247.166 179.967 252.366C172.233 257.566 165.433 261.833 164.9 261.833C164.233 261.833 156.767 257.166 148.233 251.433L132.5 241.033L158.9 223.3C173.3 213.433 211.3 187.966 243.167 166.5C275.033 145.033 313.167 119.3 327.833 109.433C342.5 99.4331 354.9 91.2998 355.567 91.2998C356.1 91.1665 396.233 117.166 444.9 148.9ZM599.167 304.233V327.833L584.9 337.433C576.9 342.633 541.433 366.5 505.833 390.5C470.233 414.5 435.3 437.966 428.233 442.766L415.167 451.566V510.766C415.167 543.166 415.433 569.833 415.833 569.833C416.233 569.833 422.9 565.433 430.767 560.1C438.767 554.633 469.167 534.233 498.5 514.5C527.833 494.766 561.7 471.966 573.833 463.833C585.967 455.7 596.633 448.5 597.567 447.966C598.767 447.166 599.167 451.7 599.167 468.9V490.766L578.233 504.766C566.633 512.633 541.833 529.3 523.167 541.833C433.567 602.366 380.633 637.833 379.967 637.833C379.567 637.833 379.167 590.633 379.167 532.766L379.3 427.833L394.1 417.833C413.033 405.166 467.833 368.233 533.833 323.833C562.1 304.9 587.833 287.3 591.167 284.9C594.5 282.5 597.567 280.5 598.233 280.5C598.767 280.5 599.167 291.166 599.167 304.233ZM136.1 296.5L151.167 306.233L151.433 389.566L151.833 473.033L159.167 477.966C167.433 483.566 246.633 535.7 277.967 556.233C289.433 563.7 299.167 569.833 299.567 569.833C300.1 569.833 300.5 532.9 300.5 487.7C300.5 416.233 300.767 405.7 302.5 406.233C303.567 406.766 311.567 411.833 320.5 417.833L336.5 428.633V533.166C336.5 591.3 335.967 637.833 335.3 637.833C334.633 637.833 312.633 623.7 286.367 606.366C236.5 573.566 197.033 547.566 145.567 513.7L115.167 493.7V388.233V282.9L118.233 284.766C119.833 285.833 127.967 291.166 136.1 296.5Z" fill="white"/>
<path d="M348.5 138.767C344.5 141.567 316.233 160.633 285.833 181.033C255.433 201.433 229.433 219.167 228.233 220.367C225.833 222.633 227.7 223.833 364.767 313.433L387.567 328.367L410.367 312.9C422.9 304.367 452.233 284.5 475.567 268.767C498.767 253.167 517.833 239.833 517.833 239.167C517.833 238.233 506.1 230.367 445.167 190.633C428.367 179.7 402.233 162.633 387.167 152.767C372.1 142.9 358.9 134.5 357.833 134.233C356.767 133.967 352.5 135.967 348.5 138.767Z" fill="white"/>
</g>
<defs>
<clipPath id="clip0_20_322">
<rect width="738.667" height="738.667" fill="white" transform="translate(0.5 0.5)"/>
</clipPath>
</defs>
</svg>
