<svg width="1440" height="1440" viewBox="0 0 1440 1440" fill="none" xmlns="http://www.w3.org/2000/svg">
<g clip-path="url(#clip0_128_65)">
<rect width="1440" height="1440" fill="#18181B"/>
<path d="M0 0V1440" stroke="#AC51D2"/>
<path d="M36.9233 0V1440" stroke="#AC51D2"/>
<path d="M73.8461 0V1440" stroke="#AC51D2"/>
<path d="M110.769 0V1440" stroke="#AC51D2"/>
<path d="M147.692 0V1440" stroke="#AC51D2"/>
<path d="M184.616 0V1440" stroke="#AC51D2"/>
<path d="M221.538 0V1440" stroke="#AC51D2"/>
<path d="M258.462 0V1440" stroke="#AC51D2"/>
<path d="M295.385 0V1440" stroke="#AC51D2"/>
<path d="M332.308 0V1440" stroke="#AC51D2"/>
<path d="M369.231 0V1440" stroke="#AC51D2"/>
<path d="M406.154 0V1440" stroke="#AC51D2"/>
<path d="M443.077 0V1440" stroke="#AC51D2"/>
<path d="M480 0V1440" stroke="#AC51D2"/>
<path d="M516.923 0V1440" stroke="#AC51D2"/>
<path d="M553.846 0V1440" stroke="#AC51D2"/>
<path d="M590.769 0V1440" stroke="#AC51D2"/>
<path d="M627.692 0V1440" stroke="#AC51D2"/>
<path d="M664.615 0V1440" stroke="#AC51D2"/>
<path d="M701.539 0V1440" stroke="#AC51D2"/>
<path d="M738.461 0V1440" stroke="#AC51D2"/>
<path d="M775.385 0V1440" stroke="#AC51D2"/>
<path d="M812.308 0V1440" stroke="#AC51D2"/>
<path d="M849.231 0V1440" stroke="#AC51D2"/>
<path d="M886.154 0V1440" stroke="#AC51D2"/>
<path d="M923.077 0V1440" stroke="#AC51D2"/>
<path d="M960 0V1440" stroke="#AC51D2"/>
<path d="M996.923 0V1440" stroke="#AC51D2"/>
<path d="M1033.85 0V1440" stroke="#AC51D2"/>
<path d="M1070.77 0V1440" stroke="#AC51D2"/>
<path d="M1107.69 0V1440" stroke="#AC51D2"/>
<path d="M1144.62 0V1440" stroke="#AC51D2"/>
<path d="M1181.54 0V1440" stroke="#AC51D2"/>
<path d="M1218.46 0V1440" stroke="#AC51D2"/>
<path d="M1255.38 0V1440" stroke="#AC51D2"/>
<path d="M1292.31 0V1440" stroke="#AC51D2"/>
<path d="M1329.23 0V1440" stroke="#AC51D2"/>
<path d="M1366.15 0V1440" stroke="#AC51D2"/>
<path d="M1403.08 0V1440" stroke="#AC51D2"/>
<path d="M1440 0V1440" stroke="#AC51D2"/>
<path d="M0 0H1440" stroke="#AC51D2"/>
<path d="M0 36.9231H1440" stroke="#AC51D2"/>
<path d="M0 73.8462H1440" stroke="#AC51D2"/>
<path d="M0 110.769H1440" stroke="#AC51D2"/>
<path d="M0 147.692H1440" stroke="#AC51D2"/>
<path d="M0 184.615H1440" stroke="#AC51D2"/>
<path d="M0 221.538H1440" stroke="#AC51D2"/>
<path d="M0 258.462H1440" stroke="#AC51D2"/>
<path d="M0 295.385H1440" stroke="#AC51D2"/>
<path d="M0 332.308H1440" stroke="#AC51D2"/>
<path d="M0 369.231H1440" stroke="#AC51D2"/>
<path d="M0 406.154H1440" stroke="#AC51D2"/>
<path d="M0 443.077H1440" stroke="#AC51D2"/>
<path d="M0 480H1440" stroke="#AC51D2"/>
<path d="M0 516.923H1440" stroke="#AC51D2"/>
<path d="M0 553.846H1440" stroke="#AC51D2"/>
<path d="M0 590.769H1440" stroke="#AC51D2"/>
<path d="M0 627.692H1440" stroke="#AC51D2"/>
<path d="M0 664.615H1440" stroke="#AC51D2"/>
<path d="M0 701.538H1440" stroke="#AC51D2"/>
<path d="M0 738.462H1440" stroke="#AC51D2"/>
<path d="M0 775.385H1440" stroke="#AC51D2"/>
<path d="M0 812.308H1440" stroke="#AC51D2"/>
<path d="M0 849.231H1440" stroke="#AC51D2"/>
<path d="M0 886.154H1440" stroke="#AC51D2"/>
<path d="M0 923.077H1440" stroke="#AC51D2"/>
<path d="M0 960H1440" stroke="#AC51D2"/>
<path d="M0 996.923H1440" stroke="#AC51D2"/>
<path d="M0 1033.85H1440" stroke="#AC51D2"/>
<path d="M0 1070.77H1440" stroke="#AC51D2"/>
<path d="M0 1107.69H1440" stroke="#AC51D2"/>
<path d="M0 1144.62H1440" stroke="#AC51D2"/>
<path d="M0 1181.54H1440" stroke="#AC51D2"/>
<path d="M0 1218.46H1440" stroke="#AC51D2"/>
<path d="M0 1255.38H1440" stroke="#AC51D2"/>
<path d="M0 1292.31H1440" stroke="#AC51D2"/>
<path d="M0 1329.23H1440" stroke="#AC51D2"/>
<path d="M0 1366.15H1440" stroke="#AC51D2"/>
<path d="M0 1403.08H1440" stroke="#AC51D2"/>
<path d="M0 1440H1440" stroke="#AC51D2"/>
<rect width="1440" height="1440" fill="url(#paint0_linear_128_65)"/>
<rect width="1440" height="1024" fill="url(#paint1_linear_128_65)"/>
</g>
<defs>
<linearGradient id="paint0_linear_128_65" x1="720" y1="0" x2="720" y2="1440" gradientUnits="userSpaceOnUse">
<stop stop-color="#18181B" stop-opacity="0"/>
<stop offset="0.534678" stop-color="#18181B"/>
</linearGradient>
<linearGradient id="paint1_linear_128_65" x1="720" y1="0" x2="720" y2="1024" gradientUnits="userSpaceOnUse">
<stop stop-color="#08080B" stop-opacity="0.8"/>
<stop offset="1" stop-color="#18181B" stop-opacity="0"/>
</linearGradient>
<clipPath id="clip0_128_65">
<rect width="1440" height="1440" fill="white"/>
</clipPath>
</defs>
</svg>
